<?xml version="1.0" standalone="no"?>
<!DOCTYPE svg PUBLIC "-//W3C//DTD SVG 20010904//EN"
 "http://www.w3.org/TR/2001/REC-SVG-20010904/DTD/svg10.dtd">
<svg version="1.0" xmlns="http://www.w3.org/2000/svg"
 width="525.000000pt" height="525.000000pt" viewBox="0 0 525.000000 525.000000"
 preserveAspectRatio="xMidYMid meet">

<g transform="translate(0.000000,525.000000) scale(0.100000,-0.100000)"
fill="#000000" stroke="none">
<path d="M2521 5209 c-258 -43 -477 -243 -541 -495 -11 -43 -20 -91 -20 -108
0 -29 -6 -34 -103 -84 -150 -78 -277 -172 -412 -307 -215 -214 -352 -446 -434
-730 -50 -173 -53 -211 -61 -785 -8 -581 -14 -653 -66 -890 -87 -387 -239
-648 -447 -765 -103 -57 -137 -104 -137 -191 0 -60 31 -118 82 -151 l42 -28
701 -3 701 -3 27 -82 c84 -259 318 -482 575 -548 105 -27 309 -27 414 0 257
66 491 289 575 548 l27 82 701 3 701 3 42 28 c51 33 82 91 82 151 0 87 -34
134 -137 191 -208 117 -360 378 -447 765 -52 237 -58 309 -66 890 -8 574 -11
612 -61 785 -82 284 -219 516 -434 730 -135 135 -262 229 -412 307 -97 50
-103 55 -103 84 0 17 -9 65 -20 108 -85 335 -423 552 -769 495z m254 -404 c51
-26 126 -98 114 -109 -2 -2 -38 1 -79 6 -78 10 -382 5 -412 -7 -31 -12 -20 14
25 59 91 90 235 111 352 51z m124 -496 c463 -101 832 -431 981 -877 61 -186
62 -190 70 -792 7 -531 15 -660 45 -787 l5 -23 -1365 0 -1365 0 5 23 c30 127
38 256 45 787 8 602 9 606 70 792 162 487 595 839 1105 898 103 13 296 2 404
-21z m1236 -2961 c22 -55 65 -145 97 -199 l56 -99 -1653 0 -1653 0 56 99 c32
54 75 144 97 199 l40 102 1460 0 1460 0 40 -102z m-1095 -683 c0 -17 -43 -86
-79 -126 -174 -198 -478 -198 -652 0 -36 40 -79 109 -79 126 0 3 182 5 405 5
223 0 405 -2 405 -5z"/>
<path d="M2450 4205 c-256 -44 -456 -145 -634 -321 -221 -219 -346 -507 -346
-799 0 -107 16 -145 78 -189 34 -24 51 -29 99 -29 68 0 107 18 151 67 31 36
35 51 47 186 22 266 197 521 442 644 79 40 208 73 313 81 107 8 134 19 178 69
78 89 45 238 -62 287 -49 22 -152 24 -266 4z"/>
</g>
</svg>
