<?xml version="1.0" standalone="no"?>
<!DOCTYPE svg PUBLIC "-//W3C//DTD SVG 20010904//EN"
 "http://www.w3.org/TR/2001/REC-SVG-20010904/DTD/svg10.dtd">
<svg version="1.0" xmlns="http://www.w3.org/2000/svg"
 width="5000.000000pt" height="5000.000000pt" viewBox="0 0 5000.000000 5000.000000"
 preserveAspectRatio="xMidYMid meet">

<g transform="translate(0.000000,5000.000000) scale(0.100000,-0.100000)"
fill="#000000" stroke="none">
<path d="M24577 47550 c-749 -27 -1545 -126 -2240 -281 -973 -216 -1631 -412
-2329 -695 -594 -240 -1210 -547 -1747 -871 -721 -435 -1512 -1018 -2104
-1552 -800 -722 -1456 -1481 -2129 -2466 -461 -675 -869 -1426 -1195 -2200
-241 -572 -449 -1205 -608 -1850 -258 -1050 -356 -1656 -417 -2600 -16 -252
-16 -1112 0 -1370 54 -848 152 -1492 361 -2365 167 -698 293 -1118 498 -1665
440 -1167 1029 -2215 1871 -3325 701 -924 1544 -1762 2477 -2461 1128 -847
2123 -1399 3330 -1851 788 -295 1926 -583 2830 -718 662 -98 1255 -136 1985
-127 682 8 1207 53 1850 158 369 60 969 190 1430 310 1511 392 2883 1038 4180
1967 665 477 1112 850 1633 1362 663 651 1231 1348 1802 2210 785 1184 1350
2466 1694 3845 266 1063 373 1725 433 2665 16 254 16 1117 0 1365 -57 867
-145 1455 -353 2335 -162 684 -290 1116 -494 1665 -455 1222 -1099 2353 -1984
3489 -663 851 -1459 1636 -2331 2298 -1017 772 -1985 1329 -3065 1763 -691
278 -1368 479 -2307 685 -978 215 -2076 315 -3071 280z m913 -4380 c654 -36
1297 -132 1768 -265 943 -267 1882 -699 2707 -1248 828 -551 1786 -1512 2342
-2347 552 -831 969 -1734 1237 -2680 67 -238 96 -367 146 -665 96 -567 133
-1020 133 -1615 0 -844 -100 -1651 -284 -2295 -344 -1202 -956 -2389 -1689
-3272 -377 -454 -874 -949 -1320 -1314 -662 -542 -1473 -1010 -2365 -1364
-389 -154 -940 -328 -1233 -390 -1211 -252 -2568 -258 -3792 -15 -699 138
-1656 503 -2404 915 -769 424 -1326 845 -1972 1490 -755 753 -1223 1404 -1695
2358 -313 633 -597 1414 -709 1953 -190 915 -242 1913 -149 2879 40 418 127
938 206 1230 329 1217 949 2450 1682 3345 589 719 1307 1379 1981 1822 814
536 1714 947 2652 1213 458 129 1116 229 1743 264 210 12 805 12 1015 1z"/>
<path d="M17660 18093 c-1093 -48 -1914 -174 -3155 -484 -1587 -397 -3052
-1048 -4465 -1984 -1435 -951 -2619 -2023 -3649 -3305 -801 -997 -1505 -2108
-2001 -3160 -513 -1086 -848 -2100 -1135 -3435 -176 -820 -273 -1635 -292
-2455 l-6 -285 44 -185 43 -185 78 -109 c69 -97 88 -116 182 -182 l104 -74
186 -45 187 -45 1364 0 1364 0 187 45 186 45 104 74 c94 66 113 85 182 182
l78 109 41 180 42 180 10 320 c22 647 82 1166 207 1798 109 548 368 1326 672
2017 106 240 349 728 473 950 232 417 531 885 759 1190 573 766 1259 1483
2000 2090 468 383 887 669 1450 992 250 143 785 414 1040 527 651 287 1430
548 1972 660 512 106 1055 176 1648 213 300 19 14582 19 14870 0 851 -56 1536
-167 2155 -349 1408 -414 2765 -1114 3848 -1985 987 -794 1878 -1773 2499
-2748 645 -1011 1133 -2106 1437 -3220 165 -606 273 -1426 297 -2250 6 -216 7
-232 46 -395 22 -93 44 -177 48 -185 5 -8 39 -57 77 -107 56 -77 86 -106 171
-167 l103 -74 190 -46 190 -46 1364 0 1364 0 187 45 186 45 104 74 c94 66 113
85 182 182 l78 109 43 185 44 185 -6 290 c-19 816 -116 1633 -292 2450 -220
1021 -456 1816 -784 2633 -499 1243 -1150 2378 -2060 3587 -1073 1427 -2373
2641 -3941 3680 -1428 946 -2889 1592 -4510 1995 -1099 273 -1729 377 -2755
457 -204 16 -740 17 -7595 18 -4056 1 -7404 0 -7440 -2z"/>
</g>
</svg>
