<?xml version="1.0" standalone="no"?>
<!DOCTYPE svg PUBLIC "-//W3C//DTD SVG 20010904//EN"
 "http://www.w3.org/TR/2001/REC-SVG-20010904/DTD/svg10.dtd">
<svg version="1.0" xmlns="http://www.w3.org/2000/svg"
 width="455.000000pt" height="455.000000pt" viewBox="0 0 455.000000 455.000000"
 preserveAspectRatio="xMidYMid meet">

<g transform="translate(0.000000,455.000000) scale(0.100000,-0.100000)"
fill="#000000" stroke="none">
<path d="M1183 4191 c-12 -6 -267 -174 -566 -376 -503 -337 -547 -369 -566
-408 -21 -43 -21 -46 -21 -1488 0 -1387 1 -1446 19 -1485 27 -59 73 -89 138
-89 51 0 55 3 546 333 273 182 497 332 500 332 3 0 219 -144 481 -320 262
-176 489 -326 506 -335 48 -25 90 -19 156 22 33 21 258 171 500 333 241 162
442 296 446 298 4 2 231 -146 504 -330 491 -330 497 -333 548 -333 59 0 106
27 134 78 16 30 17 127 20 1472 2 1087 0 1451 -9 1483 -7 24 -24 56 -39 70
-15 15 -269 189 -565 387 -533 357 -537 360 -589 360 -51 0 -55 -3 -548 -334
l-498 -334 -496 333 c-421 282 -503 333 -538 336 -22 2 -51 0 -63 -5z m927
-1498 c0 -293 -3 -533 -7 -533 -5 0 -39 16 -77 35 -41 20 -74 31 -79 26 -5 -5
-26 -37 -48 -72 -46 -75 -48 -71 66 -124 109 -52 120 -53 132 -13 8 24 11
-130 12 -573 l1 -606 -355 236 -354 236 -1 598 c0 500 2 597 14 597 7 0 34 30
60 67 52 75 51 78 -25 121 l-49 27 0 493 0 492 355 -237 355 -236 0 -534z
m1050 430 c0 -570 0 -576 -19 -559 -11 10 -24 16 -30 15 -12 -5 -141 -151
-141 -161 0 -3 28 -31 62 -62 l63 -55 32 31 33 32 0 -530 -1 -529 -354 -236
-355 -237 0 554 0 554 34 0 c51 0 57 14 43 101 -12 73 -13 74 -45 77 l-32 3 0
553 0 552 353 237 c193 130 353 236 355 237 1 0 2 -259 2 -577z m-2100 -626
l0 -1194 -340 -236 c-186 -131 -342 -237 -345 -237 -3 0 -5 537 -5 1193 l0
1193 338 236 c185 130 340 237 345 237 4 1 7 -536 7 -1192z m2794 958 l336
-230 0 -1192 c0 -656 -3 -1193 -6 -1193 -3 0 -158 104 -345 231 l-339 231 0
683 0 682 48 13 c26 7 50 16 55 19 4 4 0 44 -10 90 l-16 82 -39 -6 -38 -7 0
417 c0 243 4 415 9 413 5 -1 160 -106 345 -233z"/>
<path d="M1603 2447 c-34 -28 -62 -56 -62 -62 -1 -19 131 -165 149 -165 10 0
41 25 69 56 58 66 59 59 -31 156 l-63 68 -62 -53z"/>
<path d="M2810 2265 c-7 -9 -39 -32 -71 -52 -33 -20 -59 -42 -59 -49 0 -22 63
-144 75 -144 27 0 195 115 195 133 0 15 -101 127 -115 127 -7 0 -18 -7 -25
-15z"/>
<path d="M884 2761 c-43 -22 -92 -53 -107 -69 l-29 -30 59 -61 58 -62 77 38
c43 21 79 44 81 53 3 16 -38 149 -51 162 -5 5 -44 -9 -88 -31z"/>
<path d="M625 2506 c-23 -35 -75 -164 -75 -186 0 -14 19 -25 77 -44 42 -14 80
-23 84 -18 4 4 12 25 19 47 7 22 23 60 36 84 13 24 24 45 24 47 0 5 -117 83
-134 90 -9 3 -21 -5 -31 -20z"/>
<path d="M3732 2917 c-29 -29 -52 -57 -52 -62 0 -5 21 -31 47 -57 l47 -48 -47
-48 c-26 -26 -47 -52 -47 -58 0 -12 102 -114 115 -114 5 0 31 21 57 47 l48 47
48 -47 c26 -26 52 -47 58 -47 12 0 114 102 114 115 0 5 -21 31 -47 57 l-47 48
47 48 c26 26 47 52 47 58 0 12 -102 114 -115 114 -5 0 -31 -21 -57 -47 l-48
-47 -48 47 c-26 26 -52 47 -58 47 -5 0 -33 -24 -62 -53z"/>
</g>
</svg>
