<?xml version="1.0" encoding="utf-8"?>
<!-- Generator: Adobe Illustrator 24.3.0, SVG Export Plug-In . SVG Version: 6.00 Build 0)  -->
<svg version="1.1" id="Calque_1" xmlns="http://www.w3.org/2000/svg" xmlns:xlink="http://www.w3.org/1999/xlink" x="0px" y="0px"
	 viewBox="0 0 1440 803" style="enable-background:new 0 0 1440 803;" xml:space="preserve">
<style type="text/css">
	.st0{opacity:0.75;}
	.st1{fill:#F7F7F9;}
	.st2{fill:#EBEBEF;}
	.st3{opacity:0.5;fill:#C4C6D1;enable-background:new    ;}
	.st4{opacity:0.3;fill:#C4C6D1;enable-background:new    ;}
	.st5{opacity:0.3;}
	.st6{fill:#D9DAE1;}
	.st7{opacity:0.5;fill:#D9DAE1;enable-background:new    ;}
	.st8{opacity:0.5;}
</style>
<g class="st0">
	<path class="st1" d="M806.4,261.3l-70.7,379.4l170.9,31.9l70.7-379.4L806.4,261.3z"/>
	<path class="st2" d="M712.4,569h-41.5v-25.5c0-0.9-0.3-1.7-1-2.3s-1.5-1-2.3-1s-1.7,0.3-2.3,1c-0.6,0.6-1,1.5-1,2.3v28.8
		c0,0.9,0.3,1.7,1,2.3c0.6,0.6,1.5,1,2.3,1h41.5v22.2h-41.5c-0.9,0-1.7,0.3-2.3,1c-0.6,0.6-1,1.5-1,2.3s0.3,1.7,1,2.3
		c0.6,0.6,1.5,1,2.3,1h44.8c0.9,0,1.7-0.3,2.3-1c0.6-0.6,1-1.5,1-2.3v-28.8c0-0.9-0.3-1.7-1-2.3C714.1,569.3,713.3,569,712.4,569z"
		/>
	<path class="st2" d="M678.6,515.5v-28.8c0-0.9-0.3-1.7-1-2.3c-0.6-0.6-1.5-1-2.3-1h-41.5v-25.5c0-0.9-0.3-1.7-1-2.3
		c-0.6-0.6-1.5-1-2.3-1h-44.8c-0.9,0-1.7,0.3-2.3,1c-0.6,0.6-1,1.4-1,2.3c0,0.9,0.3,1.7,1,2.3c0.6,0.6,1.5,1,2.3,1h41.5v25.5
		c0,0.9,0.3,1.7,1,2.3c0.6,0.6,1.5,1,2.3,1H672v22.2h-41.5c-0.9,0-1.7,0.3-2.3,1c-0.6,0.6-1,1.5-1,2.3s0.3,1.7,1,2.3
		c0.6,0.6,1.5,1,2.3,1h44.8c0.9,0,1.7-0.3,2.3-1C678.2,517.2,678.6,516.3,678.6,515.5z"/>
	<path class="st2" d="M721.1,420.7c0.9,0,1.7-0.3,2.3-1c0.6-0.6,1-1.4,1-2.3c0-0.9-0.3-1.7-1-2.3c-0.6-0.6-1.4-1-2.3-1h-44.8
		c-0.9,0-1.7,0.3-2.3,1c-0.6,0.6-1,1.4-1,2.3v28.8c0,0.9,0.3,1.7,1,2.3c0.6,0.6,1.5,1,2.3,1h44.8c0.9,0,1.7-0.3,2.3-1
		c0.6-0.6,1-1.5,1-2.3s-0.3-1.7-1-2.3c-0.6-0.6-1.4-1-2.3-1h-41.5v-22.2H721.1z"/>
	<path class="st2" d="M676.3,354.9c-0.9,0-1.7,0.3-2.3,1c-0.6,0.6-1,1.5-1,2.3v25.2h-41.5c-0.9,0-1.7,0.3-2.3,1
		c-0.6,0.6-1,1.5-1,2.3v28.8c0,0.9,0.3,1.7,1,2.3c0.6,0.6,1.5,1,2.3,1c0.9,0,1.7-0.3,2.3-1c0.6-0.6,1-1.4,1-2.3V390h40.3
		c0.5,0.2,1,0.3,1.6,0.2c0.5-0.1,1-0.2,1.5-0.5c0.4-0.3,0.8-0.7,1.1-1.2c0.3-0.5,0.4-1,0.4-1.5v-28.8c0-0.9-0.3-1.7-1-2.3
		C678,355.3,677.2,354.9,676.3,354.9z"/>
	<path class="st2" d="M721.1,190.4h-41.5v-25.5c0-0.9-0.3-1.7-1-2.3c-0.6-0.6-1.5-1-2.3-1s-1.7,0.3-2.3,1c-0.6,0.6-1,1.4-1,2.3v28.8
		c0,0.9,0.3,1.7,1,2.3c0.6,0.6,1.5,1,2.3,1h44.8c0.9,0,1.7-0.3,2.3-1c0.6-0.6,1-1.4,1-2.3c0-0.9-0.3-1.7-1-2.3
		C722.8,190.7,721.9,190.4,721.1,190.4z"/>
	<path class="st2" d="M765.8,57.5h-41.5V32c0-0.9-0.3-1.7-1-2.3c-0.6-0.6-1.4-1-2.3-1h-44.8c-0.9,0-1.7,0.3-2.3,1
		c-0.6,0.6-1,1.4-1,2.3v28.8c0,0.9,0.3,1.7,1,2.3s1.5,1,2.3,1s1.7-0.3,2.3-1c0.6-0.6,1-1.4,1-2.3V35.3h38.2v25.5
		c0,0.9,0.3,1.7,1,2.3c0.6,0.6,1.4,1,2.3,1h44.8c0.9,0,1.7-0.3,2.3-1c0.6-0.6,1-1.4,1-2.3c0-0.9-0.3-1.7-1-2.3
		C767.5,57.9,766.7,57.5,765.8,57.5z"/>
	<path class="st2" d="M765.8,115h-41.5V89.5c0-0.9-0.3-1.7-1-2.3c-0.6-0.6-1.5-1-2.3-1c-0.9,0-1.7,0.3-2.3,1c-0.6,0.6-1,1.4-1,2.3
		v28.8c0,0.9,0.3,1.7,1,2.3c0.6,0.6,1.5,1,2.3,1h44.8c0.9,0,1.7-0.3,2.3-1c0.6-0.6,1-1.4,1-2.3c0-0.9-0.3-1.7-1-2.3
		C767.5,115.4,766.7,115,765.8,115z"/>
	<path class="st2" d="M1087.7,64.1c0.9,0,1.7-0.3,2.3-1c0.6-0.6,1-1.4,1-2.3V35.3h86.3c0.9,0,1.7-0.3,2.3-1c0.6-0.6,1-1.4,1-2.3
		c0-0.9-0.3-1.7-1-2.3c-0.6-0.6-1.4-1-2.3-1h-41.5V3.3c0-0.9-0.4-1.7-1-2.3c-0.6-0.6-1.4-1-2.3-1s-1.7,0.3-2.3,1
		c-0.6,0.6-1,1.4-1,2.3v25.5h-41.5c-0.9,0-1.7,0.3-2.3,1c-0.6,0.6-1,1.4-1,2.3v28.8c0,0.9,0.4,1.7,1,2.3
		C1086,63.7,1086.9,64.1,1087.7,64.1z"/>
	<path class="st2" d="M1087.3,246.3h44.8c0.9,0,1.7-0.3,2.3-1c0.6-0.6,1-1.4,1-2.3s-0.3-1.7-1-2.3c-0.6-0.6-1.4-1-2.3-1h-41.5v-22.2
		h86.3c0.9,0,1.7-0.3,2.3-1c0.6-0.6,1-1.5,1-2.3v-28.8c0-0.9-0.3-1.7-1-2.3c-0.6-0.6-1.4-1-2.3-1h-86.3v-25.5c0-0.9-0.4-1.7-1-2.3
		c-0.6-0.6-1.4-1-2.3-1s-1.7,0.3-2.3,1c-0.6,0.6-1,1.4-1,2.3v28.8c0,0.9,0.3,1.7,1,2.3c0.6,0.6,1.5,1,2.3,1h86.3V211h-86.3
		c-0.9,0-1.7,0.3-2.3,1c-0.6,0.6-1,1.4-1,2.3V243c0,0.9,0.3,1.7,1,2.3C1085.6,245.9,1086.4,246.3,1087.3,246.3z"/>
	<path class="st2" d="M998.2,569c-0.9,0-1.7,0.3-2.3,1c-0.6,0.6-1,1.5-1,2.3s0.3,1.7,1,2.3c0.6,0.6,1.5,1,2.3,1h89.6
		c0.9,0,1.7-0.3,2.3-1c0.6-0.6,1-1.4,1-2.3s-0.3-1.7-1-2.3c-0.6-0.6-1.5-1-2.3-1h-41.5v-22.2h41.5c0.9,0,1.7-0.3,2.3-1
		c0.6-0.6,1-1.5,1-2.3s-0.3-1.7-1-2.3c-0.6-0.6-1.5-1-2.3-1h-89.6c-0.9,0-1.7,0.3-2.3,1c-0.6,0.6-1,1.5-1,2.3s0.3,1.7,1,2.3
		c0.6,0.6,1.5,1,2.3,1h41.5V569H998.2z"/>
	<path class="st2" d="M1043,597.7h-44.8c-0.9,0-1.7,0.3-2.3,1c-0.6,0.6-1,1.5-1,2.3s0.3,1.7,1,2.3c0.6,0.6,1.5,1,2.3,1h41.5v22.2
		h-41.5c-0.9,0-1.7,0.3-2.3,1c-0.6,0.6-1,1.5-1,2.3s0.3,1.7,1,2.3c0.6,0.6,1.5,1,2.3,1h44.8c0.9,0,1.7-0.3,2.3-1
		c0.6-0.6,1-1.5,1-2.3V601c0-0.9-0.3-1.7-1-2.3C1044.7,598,1043.8,597.7,1043,597.7z"/>
	<path class="st2" d="M1214,569h-37.9c-0.9,0-1.7,0.3-2.3,1c-0.6,0.6-1,1.5-1,2.3v25.5h-41.5c-0.9,0-1.7,0.3-2.3,1
		c-0.6,0.6-1,1.4-1,2.3c0,0.9,0.3,1.7,1,2.3c0.6,0.6,1.5,1,2.3,1h44.8c0.9,0,1.7-0.3,2.3-1c0.6-0.6,1-1.4,1-2.3v-25.5h34.6L1214,569
		z"/>
	<path class="st2" d="M586.7,225.7c0.9,0,1.7-0.3,2.3-1c0.6-0.6,1-1.4,1-2.3v-25.5h38.2v25.5c0,0.9,0.3,1.7,1,2.3
		c0.6,0.6,1.5,1,2.3,1H673v25.5c0,0.9,0.3,1.7,1,2.3c0.6,0.6,1.5,1,2.3,1s1.7-0.3,2.3-1s1-1.4,1-2.3v-28.8c0-0.9-0.3-1.7-1-2.3
		c-0.6-0.6-1.5-1-2.3-1h-41.5v-25.5c0-0.9-0.3-1.7-1-2.3c-0.6-0.6-1.5-1-2.3-1h-44.8c-0.9,0-1.7,0.3-2.3,1c-0.6,0.6-1,1.4-1,2.3
		v28.8c0,0.9,0.3,1.7,1,2.3C585,225.3,585.9,225.7,586.7,225.7z"/>
	<path class="st2" d="M1173.5,127.9v28.8c0,0.9,0.3,1.7,1,2.3c0.6,0.6,1.4,1,2.3,1c0.9,0,1.7-0.3,2.3-1c0.6-0.6,1-1.4,1-2.3v-28.8
		c0-0.9-0.3-1.7-1-2.3c-0.6-0.6-1.4-1-2.3-1c-0.9,0-1.7,0.3-2.3,1C1173.9,126.2,1173.5,127.1,1173.5,127.9z"/>
	<path class="st2" d="M1132.5,626.5h-44.8c-0.9,0-1.7,0.3-2.3,1c-0.6,0.6-1,1.5-1,2.3s0.4,1.7,1,2.3c0.6,0.6,1.4,1,2.3,1h41.5v25.5
		c0,0.9,0.3,1.7,1,2.3c0.6,0.6,1.5,1,2.3,1s1.7-0.3,2.3-1c0.6-0.6,1-1.5,1-2.3v-28.8c0-0.9-0.4-1.7-1-2.3
		C1134.2,626.8,1133.4,626.5,1132.5,626.5z"/>
	<path class="st2" d="M501.8,414.4l38.3,119.7c-0.7-2.1-2.1-3.8-4.1-4.8c-2-1-4.2-1.2-6.3-0.5l-78.1,25c-2.1,0.7-3.8,2.1-4.9,4.1
		s-1.2,4.2-0.5,6.3l-38.3-119.7c-2-6.2-2.7-12.7-2.2-19.1c0.5-6.5,2.3-12.7,5.3-18.5c6-11.6,16.3-20.4,28.8-24.4
		c12.5-4,26-2.9,37.6,3.1S497.8,401.9,501.8,414.4L501.8,414.4z"/>
	<path class="st3" d="M501.8,414.4c-3.1-9.6-9-18-17-24.2s-17.7-9.6-27.8-10.1c14.6,6.2,27.1,19.7,32.8,37.4l32.5,101.6l-76.5,24.5
		c-2,0.7-3.8,2.1-4.8,4l5.3,16.5c-0.7-2.1-0.5-4.4,0.5-6.3s2.8-3.4,4.9-4.1l74.1-23.7l4-1.3c1-0.3,2.1-0.5,3.2-0.4
		c1.1,0.1,2.1,0.4,3.1,0.9c1,0.5,1.8,1.2,2.5,2c0.7,0.8,1.2,1.8,1.6,2.8L501.8,414.4z"/>
	<path class="st2" d="M405.9,435.5c0.4,3,1,6,2,8.9l33.4,104.4c-1.6-5-5.1-9.1-9.7-11.5c-4.6-2.4-10-2.8-15-1.3l-3.4,1.1
		c-3.4,1.1-6.4,3.1-8.7,5.7c0,0-27.2-44.5-35.6-71.1c-8.5-26.5-10.7-49.1,7.5-54.9C399.9,409.3,405.9,435.5,405.9,435.5z"/>
	<path class="st2" d="M498.2,406c1.4,2.7,2.6,5.5,3.6,8.4l33.4,104.4c-1.6-5-1.1-10.3,1.3-15c2.4-4.6,6.5-8.1,11.5-9.7l3.4-1.1
		c3.4-1.1,7-1.2,10.4-0.4c0,0-3.7-52-12.2-78.6c-8.5-26.5-19.8-46.2-38-40.4C487.9,381.2,498.2,406,498.2,406z"/>
	<path class="st4" d="M431.1,537.1c1.2,0.6,2.3,1.2,3.3,2l0.1,0.1c0.7,0.5,1.3,1.1,1.9,1.6l0.1,0.1c0.3,0.3,0.5,0.5,0.8,0.8l0.1,0.1
		c0.3,0.3,0.5,0.6,0.8,1l0,0.1c0.2,0.3,0.5,0.6,0.7,0.9l0.2,0.3c0.2,0.3,0.4,0.6,0.5,0.9c0,0.1,0.1,0.1,0.1,0.2
		c0.2,0.3,0.4,0.7,0.6,1.1c0,0.1,0.1,0.2,0.1,0.3c0.1,0.3,0.3,0.6,0.4,0.9l0.1,0.3c0.1,0.4,0.3,0.8,0.4,1.2l-6.6-20.7l-26.8-83.8
		c-0.9-2.9-1.6-5.9-2-8.9c0,0-6-26.2-29.6-18.7c-0.8,0.3-1.7,0.6-2.5,0.9c17.2-0.3,21.9,20,21.9,20c0.4,3,1,6,2,8.9l24.9,77.8
		c-0.5,0-1-0.1-1.6-0.1c-8.2,0-16.1,4.1-21.3,10.4c2.9,5,4.8,8.1,4.8,8.1c2.3-2.7,5.4-4.7,8.7-5.7l3.4-1.1c3.1-1,6.4-1.2,9.5-0.6
		l0,0C427.8,535.8,429.5,536.3,431.1,537.1L431.1,537.1z"/>
	<path class="st4" d="M552.7,492.6L552.7,492.6c0.5-0.1,0.9-0.2,1.3-0.3h0.1c0.4-0.1,0.8-0.1,1.2-0.2h0.2l1-0.1h1.3h0.5l0.8,0
		l0.7,0.1c0.2,0,0.4,0,0.6,0.1c0.4,0.1,0.8,0.2,1.3,0.3c0,0-0.3-4.5-1-11.4c-1.6-16.8-5.2-48.4-11.2-67.1
		c-8.5-26.5-19.8-46.2-38-40.4c-1.1,0.4-2.3,0.8-3.4,1.3c14.3,0.5,23.8,18.3,31.2,41.4c5.9,18.4,9.5,49.2,11.2,66.3
		c-4.7,0.6-9.1,2.4-12.9,5.1c-3.8,2.7-6.9,6.4-9,10.6l6.6,20.5c-1.6-5-1.1-10.3,1.3-15s6.5-8.1,11.5-9.7l3.4-1.1l0.2,0
		C551.9,492.9,552.3,492.7,552.7,492.6z"/>
	<path class="st2" d="M416.6,536.1l-3.4,1.1c-10.3,3.3-16,14.4-12.7,24.7l0,0c3.3,10.3,14.4,16,24.7,12.7l3.4-1.1
		c10.3-3.3,16-14.4,12.7-24.7l0,0C438,538.5,426.9,532.8,416.6,536.1z"/>
	<path class="st2" d="M559.9,531.5l3.4-1.1c10.3-3.3,16-14.4,12.7-24.7l0,0c-3.3-10.3-14.4-16-24.7-12.7l-3.4,1.1
		c-10.3,3.3-16,14.4-12.7,24.7l0,0C538.5,529.1,549.6,534.8,559.9,531.5z"/>
	<g class="st5">
		<path class="st4" d="M442.2,554.8c0,4.2-1.3,8.2-3.8,11.6c-2.5,3.4-5.9,5.9-9.9,7.1l-3.4,1.1c-4,1.3-8.3,1.2-12.3-0.1
			c-4-1.3-7.4-3.9-9.8-7.4c2.5,1.7,5.3,2.9,8.3,3.3s6,0.2,8.9-0.7l3.4-1.1c2.5-0.8,4.7-2,6.7-3.7c2-1.7,3.6-3.7,4.8-6
			c1.2-2.3,1.9-4.8,2.1-7.4c0.2-2.6-0.1-5.2-0.9-7.6c-0.6-1.9-1.5-3.6-2.6-5.2c2.6,1.8,4.7,4.2,6.2,7
			C441.5,548.5,442.2,551.7,442.2,554.8L442.2,554.8z"/>
		<path class="st4" d="M563.3,530.5l-3.4,1.1c-4,1.3-8.3,1.3-12.3-0.1c-4-1.4-7.4-4-9.8-7.4c2.5,1.7,5.3,2.9,8.3,3.3
			c3,0.5,6,0.2,8.9-0.7l3.4-1.1c5-1.6,9.1-5.1,11.5-9.7c2.4-4.6,2.8-10,1.3-15c-0.6-1.9-1.5-3.6-2.6-5.2c3,2.1,5.4,5,6.8,8.4
			s1.9,7.1,1.4,10.7c-0.5,3.6-2.1,7-4.5,9.8C569.9,527.3,566.8,529.3,563.3,530.5L563.3,530.5z"/>
	</g>
	<path class="st2" d="M441.1,548.2l0.2,0.6C441.2,548.6,441.2,548.4,441.1,548.2L441.1,548.2z"/>
	<path class="st6" d="M440.1,563.8c1.2-2.3,1.9-4.8,2.1-7.4c0.2-2.6-0.1-5.2-0.9-7.6l15.4,48.2c0.3,0.9,0.4,1.9,0.3,2.9
		c-0.1,1-0.4,1.9-0.8,2.8c-0.4,0.9-1.1,1.6-1.8,2.3c-0.7,0.6-1.6,1.1-2.5,1.4l-17.4,5.6c-0.9,0.3-1.9,0.4-2.9,0.3
		c-1-0.1-1.9-0.4-2.8-0.8c-0.9-0.4-1.6-1.1-2.3-1.8c-0.6-0.7-1.1-1.6-1.4-2.5l-10.3-32.1c3.4,0.8,7,0.6,10.3-0.5l3.4-1.1
		c2.5-0.8,4.7-2,6.7-3.7C437.2,568.2,438.9,566.1,440.1,563.8L440.1,563.8z"/>
	<path class="st2" d="M535,518.2c0.1,0.2,0.1,0.4,0.2,0.6L535,518.2L535,518.2z"/>
	<path class="st6" d="M571.9,524.8l10.3,32.1c0.6,1.9,0.4,3.9-0.5,5.7c-0.9,1.8-2.5,3.1-4.3,3.7l-17.4,5.6c-0.9,0.3-1.9,0.4-2.9,0.3
		c-1-0.1-1.9-0.4-2.8-0.8c-0.9-0.4-1.6-1.1-2.3-1.8c-0.6-0.7-1.1-1.6-1.4-2.5l-15.4-48.2c1.6,5,5.1,9.1,9.7,11.5
		c4.6,2.4,10,2.8,15,1.2l3.4-1.1C566.6,529.4,569.6,527.4,571.9,524.8L571.9,524.8z"/>
	<path class="st3" d="M447.4,567.9c-4.4,9.3-14.5,16-24.9,16c-1.7,0-3.3-0.2-4.9-0.5l-2.7-8.4c3.4,0.8,7,0.6,10.3-0.5l3.4-1.1
		c2.5-0.8,4.7-2,6.7-3.7s3.6-3.7,4.8-6c1.2-2.3,1.9-4.8,2.1-7.4c0.2-2.6-0.1-5.2-0.9-7.6L447.4,567.9z"/>
	<path class="st3" d="M575,534.4c-5.2,5.8-12.8,9.6-20.6,9.6c-4.2,0-8.3-1-12-2.8l-7.2-22.4c1.6,5,5.1,9.1,9.7,11.5
		c4.6,2.4,10,2.8,15,1.2l3.4-1.1c3.3-1.1,6.3-3,8.7-5.6L575,534.4z"/>
	<path class="st2" d="M560,571.9l-108,34.6c0.9-0.3,1.8-0.8,2.5-1.4c0.7-0.6,1.4-1.4,1.8-2.3c0.4-0.9,0.7-1.8,0.8-2.8
		c0.1-1,0-2-0.3-2.9l-4-12.5l93.9-30l4,12.5c0.3,0.9,0.8,1.8,1.4,2.5c0.6,0.7,1.4,1.4,2.3,1.8c0.9,0.4,1.8,0.7,2.8,0.8
		C558.1,572.3,559,572.2,560,571.9L560,571.9z"/>
	<path class="st2" d="M451.5,553.7l78.1-25c2.1-0.7,4.4-0.5,6.3,0.5c2,1,3.4,2.8,4.1,4.8l6.5,20.4l-93.9,30l-6.5-20.4
		c-0.3-1-0.5-2.1-0.4-3.2c0.1-1.1,0.4-2.2,0.9-3.1c0.5-1,1.2-1.8,2-2.5C449.5,554.6,450.5,554,451.5,553.7L451.5,553.7z"/>
	<path class="st4" d="M544.1,546.7l-93.9,30l2.5,7.8l93.9-30L544.1,546.7z"/>
	<path class="st6" d="M561.3,571.5l14.8-4.7l4,12.6c0.6,2,0.4,4.1-0.5,5.9c-0.9,1.8-2.6,3.2-4.5,3.8l0,0c-2,0.6-4.1,0.4-5.9-0.5
		c-1.8-0.9-3.2-2.6-3.8-4.5L561.3,571.5L561.3,571.5z"/>
	<path class="st6" d="M435.8,611.6l14.8-4.7l4,12.6c0.3,1,0.4,2,0.3,3c-0.1,1-0.4,2-0.8,2.9c-0.5,0.9-1.1,1.7-1.9,2.4
		c-0.8,0.7-1.7,1.2-2.6,1.5c-1,0.3-2,0.4-3,0.3c-1-0.1-2-0.4-2.9-0.8s-1.7-1.1-2.4-1.9c-0.7-0.8-1.2-1.7-1.5-2.6L435.8,611.6
		L435.8,611.6z"/>
	<path class="st3" d="M564.4,579.8c2.5-2.5,5.6-4.3,9-5.3l4.9-0.7l-2.3-7.1l-14.8,4.7l2.8,8.7L564.4,579.8z"/>
	<path class="st3" d="M438.7,619.6c3.9-3.5,8.8-5.7,14.1-6l-2.2-6.8l-14.8,4.7l2.6,8.2L438.7,619.6z"/>
	<path class="st6" d="M465.6,434.6c-1.1-0.3-2.2-0.3-3.3-0.2c-1.1,0.2-2.1,0.6-3,1.2c-0.6-2.1-1.6-4.1-3.1-5.8
		c-0.3-0.3-0.7-0.5-1.1-0.5c-0.4,0-0.8,0.1-1.2,0.4c-0.3,0.3-0.5,0.7-0.5,1.1c0,0.4,0.1,0.8,0.4,1.2c1.2,1.5,2,3.2,2.5,5.1
		c-1.5,0-3.6,0.5-5.9,2.6c-0.2,0.2-0.4,0.5-0.5,0.8c-0.1,0.3-0.1,0.7,0.1,1c0.1,0.3,0.3,0.6,0.6,0.8c0.3,0.2,0.6,0.3,0.9,0.3
		c0.4,0,0.8-0.2,1.1-0.4c2.5-2.3,4.2-1.7,4.6-1.5c1,1.5,1.4,3.3,1.2,5c0,0.4,0.1,0.9,0.4,1.2c0.3,0.3,0.7,0.5,1.1,0.6h0.1
		c0.4,0,0.8-0.2,1.1-0.4c0.3-0.3,0.5-0.7,0.5-1.1c0.2-2.3-0.3-4.6-1.5-6.6c0.6-0.8,2-2,4.7-1.4c0.4,0.1,0.9,0,1.2-0.2
		c0.4-0.2,0.6-0.6,0.7-1c0.1-0.4,0-0.9-0.2-1.2C466.4,435,466,434.7,465.6,434.6L465.6,434.6z"/>
	<path class="st6" d="M482.5,490.8c-1.9-0.1-3.8,0.3-5.5,1.1c-0.4-2-1.4-3.9-3-5.3c-0.3-0.3-0.8-0.4-1.2-0.3c-0.4,0-0.8,0.3-1.1,0.6
		c-0.3,0.3-0.4,0.8-0.4,1.2c0,0.4,0.3,0.8,0.6,1.1c1,1.1,1.7,2.5,1.9,3.9c-1.7,0.1-3.3,0.8-4.6,1.9c-0.3,0.2-0.5,0.5-0.5,0.8
		c-0.1,0.3-0.1,0.7,0,1c0.1,0.3,0.3,0.6,0.6,0.8c0.3,0.2,0.6,0.3,0.9,0.3c0.4,0,0.7-0.1,1-0.4c1-0.9,2.3-1.3,3.6-1.2
		c0.5,0.6,0.9,1.4,1.2,2.2c0.2,0.8,0.3,1.6,0.2,2.5c0,0.4,0.1,0.9,0.4,1.2c0.3,0.3,0.7,0.5,1.1,0.6h0.1c0.4,0,0.8-0.2,1.1-0.4
		s0.5-0.7,0.5-1.1c0.2-2.2-0.4-4.3-1.6-6.2c1.3-0.7,2.8-1.1,4.2-1c0.4,0,0.9-0.1,1.2-0.4c0.3-0.3,0.5-0.7,0.5-1.1
		c0-0.2,0-0.4-0.1-0.6c-0.1-0.2-0.2-0.4-0.3-0.6c-0.1-0.2-0.3-0.3-0.5-0.4C483,490.8,482.8,490.8,482.5,490.8L482.5,490.8z"/>
	<path class="st2" d="M589.1,345.5l14.1-7.5c0,0,6.1,5.9,9.3,4.1c5.3-2.9,6.6-13.6,17.9-19.6l1.7,4.3c0,0-10.3,9-11.4,21
		c-1,10.4-6.1,14.5-11.4,16.3C605.7,365.2,590.5,364.9,589.1,345.5z"/>
	<path class="st4" d="M632.2,326.7c0,0-10.3,9-11.4,21c-1,10.4-6.1,14.5-11.4,16.3c-2.9,1-13.1,1-17.9-8.7c4.7,3,10.1,2.8,12.1,2.2
		c5.2-1.8,10.4-5.9,11.4-16.3c0-0.5,0.1-1.1,0.2-1.6c3.4-4.4,6.1-12.2,15.2-17.1L632.2,326.7z"/>
	<path class="st6" d="M1022.7,394.2h46.4c1,0,1.9,0.4,2.6,1.1c0.7,0.7,1.1,1.6,1.1,2.6v58.2h-53.9V398c0-1,0.4-2,1.1-2.7
		S1021.7,394.2,1022.7,394.2L1022.7,394.2z"/>
	<path class="st2" d="M1058.1,412.1h-24.6v14.7h24.6V412.1z"/>
	<path class="st2" d="M984,75.4c1.6,0,2.9-1.3,2.9-2.9s-1.3-2.9-2.9-2.9s-2.9,1.3-2.9,2.9S982.4,75.4,984,75.4z"/>
	<path class="st2" d="M567.6,245.9c1.6,0,2.9-1.3,2.9-2.9s-1.3-2.9-2.9-2.9c-1.6,0-2.9,1.3-2.9,2.9S566,245.9,567.6,245.9z"/>
	<path class="st2" d="M537.4,290.8c1.6,0,2.9-1.3,2.9-2.9s-1.3-2.9-2.9-2.9s-2.9,1.3-2.9,2.9S535.8,290.8,537.4,290.8z"/>
	<path class="st2" d="M561.8,303.8c1.6,0,2.9-1.3,2.9-2.9s-1.3-2.9-2.9-2.9c-1.6,0-2.9,1.3-2.9,2.9S560.2,303.8,561.8,303.8z"/>
	<path class="st2" d="M954.1,86.2c1.6,0,2.9-1.3,2.9-2.9c0-1.6-1.3-2.9-2.9-2.9s-2.9,1.3-2.9,2.9C951.2,84.9,952.5,86.2,954.1,86.2z
		"/>
	<path class="st2" d="M976.8,127c1.6,0,2.9-1.3,2.9-2.9s-1.3-2.9-2.9-2.9s-2.9,1.3-2.9,2.9S975.2,127,976.8,127z"/>
	<path class="st2" d="M923.1,52.2c1.6,0,2.9-1.3,2.9-2.9c0-1.6-1.3-2.9-2.9-2.9s-2.9,1.3-2.9,2.9C920.2,50.9,921.5,52.2,923.1,52.2z
		"/>
	<path class="st2" d="M935.8,106.8c1.6,0,2.9-1.3,2.9-2.9c0-1.6-1.3-2.9-2.9-2.9s-2.9,1.3-2.9,2.9
		C932.9,105.5,934.2,106.8,935.8,106.8z"/>
	<path class="st2" d="M597.9,322.4c1.6,0,2.9-1.3,2.9-2.9s-1.3-2.9-2.9-2.9c-1.6,0-2.9,1.3-2.9,2.9S596.3,322.4,597.9,322.4z"/>
	<path class="st2" d="M610.6,296c1.6,0,2.9-1.3,2.9-2.9s-1.3-2.9-2.9-2.9c-1.6,0-2.9,1.3-2.9,2.9S609,296,610.6,296z"/>
	<path class="st2" d="M998.2,121.2c1.6,0,2.9-1.3,2.9-2.9c0-1.6-1.3-2.9-2.9-2.9c-1.6,0-2.9,1.3-2.9,2.9
		C995.3,119.9,996.6,121.2,998.2,121.2z"/>
	<path class="st2" d="M1081,469h-53.9l-8.2-12.9h53.9L1081,469z"/>
	<path class="st4" d="M1081,469h-53.9l-8.2-12.9h53.9L1081,469z"/>
	<path class="st2" d="M1057.6,293.4l-17.3,60.4c0,0,29.8-3.5,52.6,15.1l17.3-60.4C1087.4,289.9,1057.6,293.4,1057.6,293.4z"/>
	<path class="st7" d="M1057.6,293.4l-17.3,60.4c0,0,29.8-3.5,52.6,15.1l17.3-60.4C1087.4,289.9,1057.6,293.4,1057.6,293.4z"/>
	<path class="st6" d="M1077.6,294.3C1079.3,294.5,1075.7,294,1077.6,294.3L1077.6,294.3z"/>
	<path class="st4" d="M1089.8,364.6c-16.2-21.2-42.2-26.6-42.2-26.6l29.9-43.7l-28.1,49.9c6,1.8,11.6,4.4,22.2,13.3
		c5.7,1.9,15.5,7.5,21.1,11.4L1089.8,364.6z"/>
	<path class="st2" d="M1072.8,397.4l8.2,10.2V469l-8.2-12.9V397.4z"/>
	<path class="st6" d="M1072.8,397.4l8.2,10.2V469l-8.2-12.9V397.4z"/>
	<path class="st2" d="M1083.2,286.1l-35.5,51.9c0,0,29.3,6.1,45.2,30.9l35.5-51.9C1112.5,292.2,1083.2,286.1,1083.2,286.1z"/>
	<path class="st4" d="M1105.9,335.3c-7.5,8.2-17,14.2-27.5,17.7l-0.1,0.1c5.7,4.5,10.6,9.8,14.5,15.9l35.5-51.9
		c-1.6-2.5-3.4-5-5.4-7.2C1119.4,319.5,1113.6,328.3,1105.9,335.3L1105.9,335.3z"/>
	<path class="st2" d="M1128.3,317l-35.5,51.9c0,0,29.4,6.1,45.2,30.9l35.5-51.9C1157.7,323.1,1128.3,317,1128.3,317z"/>
	<path class="st4" d="M1163,335.5c-1.2,5-3.1,9.8-5.5,14.3c-3.4,10.5-9.5,20-17.7,27.4c-3.6,3.9-7.7,7.4-12.1,10.3
		c3.9,3.6,7.3,7.7,10.2,12.2l35.5-51.9C1170.6,343.3,1167,339.2,1163,335.5L1163,335.5z"/>
	<path class="st2" d="M1142.4,491c13,0,23.5-10.5,23.5-23.5c0-13-10.5-23.5-23.5-23.5c-13,0-23.5,10.5-23.5,23.5
		C1118.9,480.5,1129.5,491,1142.4,491z"/>
	<path class="st4" d="M1144,453.8c0.2,0,0.5,0,0.7-0.2c0.2-0.1,0.3-0.3,0.4-0.6c0.1-0.2,0-0.5-0.1-0.7c-0.1-0.2-0.3-0.4-0.5-0.5
		c-4.6-2.2-9.8-2-13.7,1.8c-1.7,1.6-2.9,3.7-3.5,5.9c-0.6,2.3-0.6,4.6,0,6.9c0.1,0.2,0.2,0.5,0.4,0.6c0.2,0.1,0.5,0.2,0.7,0.2
		c0.2,0,0.5-0.2,0.6-0.3c0.2-0.2,0.3-0.4,0.3-0.7c0.2-3.3,1.6-6.5,3.9-8.9c1.4-1.4,3.1-2.4,4.9-3
		C1140.2,453.8,1142.1,453.6,1144,453.8L1144,453.8z"/>
	<path class="st4" d="M1159,484.2c-2.5,2.5-5.5,4.4-8.9,5.5c-3.3,1.1-6.9,1.5-10.4,1.1c-3.5-0.4-6.9-1.6-9.8-3.5
		c-3-1.9-5.5-4.4-7.4-7.4c4.2,3.8,9.6,6,15.3,6.1c5.7,0.1,11.2-1.8,15.6-5.4c4.4-3.6,7.3-8.7,8.2-14.3c0.9-5.6-0.2-11.3-3.2-16.2
		c0.3,0.3,0.6,0.5,0.9,0.8c2.2,2.2,3.9,4.8,5.1,7.7c1.2,2.9,1.8,5.9,1.7,9c0,3.1-0.6,6.1-1.8,9C1162.9,479.5,1161.2,482,1159,484.2
		L1159,484.2z"/>
	<path class="st6" d="M1150.3,436c-0.1,0-0.2,0-0.4,0c-4-1-8.2-1.1-12.3-0.5c-0.2,0-0.4,0-0.6,0c-0.2-0.1-0.4-0.1-0.6-0.3
		c-0.2-0.1-0.3-0.3-0.4-0.5c-0.1-0.2-0.2-0.4-0.2-0.6c0-0.2,0-0.4,0-0.6c0.1-0.2,0.1-0.4,0.3-0.6c0.1-0.2,0.3-0.3,0.5-0.4
		c0.2-0.1,0.4-0.2,0.6-0.2c4.5-0.7,9.1-0.5,13.6,0.5c0.4,0.1,0.7,0.3,1,0.7c0.2,0.3,0.3,0.7,0.3,1.1c0,0.4-0.2,0.8-0.5,1
		C1151.1,435.9,1150.7,436,1150.3,436L1150.3,436z"/>
	<path class="st6" d="M1133.6,429.4c-0.2,0-0.4,0-0.6-0.1c-0.2-0.1-0.4-0.2-0.6-0.3c-0.2-0.1-0.3-0.3-0.4-0.5
		c-0.1-0.2-0.2-0.4-0.2-0.6c0-0.2,0-0.4,0.1-0.6c0.1-0.2,0.2-0.4,0.3-0.6c0.1-0.2,0.3-0.3,0.5-0.4c0.2-0.1,0.4-0.2,0.6-0.2
		c5.1-1.1,10.5-1.3,15.7-0.5c0.2,0,0.4,0.1,0.6,0.2c0.2,0.1,0.4,0.3,0.5,0.4c0.1,0.2,0.2,0.4,0.3,0.6c0.1,0.2,0.1,0.4,0,0.6
		c0,0.2-0.1,0.4-0.2,0.6c-0.1,0.2-0.3,0.3-0.4,0.5c-0.2,0.1-0.4,0.2-0.6,0.3s-0.4,0.1-0.7,0c-4.8-0.7-9.7-0.6-14.4,0.5
		C1133.8,429.4,1133.7,429.4,1133.6,429.4L1133.6,429.4z"/>
	<path class="st6" d="M1133.6,489.2l-7.9,7.8l-13-13.1l7.9-7.8c1.2,3,2.9,5.6,5.2,7.9C1128,486.3,1130.6,488,1133.6,489.2
		L1133.6,489.2z"/>
	<path class="st3" d="M1120.4,491.7l5.3,5.3l7.9-7.8c-2.1-0.9-4-2-5.8-3.4C1125.5,488,1123,490,1120.4,491.7z"/>
	<path class="st2" d="M1126.5,497.9l-14.7-14.8c-1.3-1.4-3.5-1.4-4.9,0c-1.3,1.3-1.4,3.5,0,4.9l14.7,14.8c1.3,1.4,3.5,1.4,4.9,0
		C1127.8,501.4,1127.8,499.3,1126.5,497.9z"/>
	<path class="st4" d="M1123.9,495.3c-1.8,1.5-3.7,2.9-5.7,4.1l3.4,3.4c0.6,0.7,1.5,1,2.4,1c0.9,0,1.8-0.3,2.4-1s1-1.5,1-2.4
		s-0.3-1.8-1-2.4L1123.9,495.3z"/>
	<path class="st2" d="M1143.6,526l-47-14.3c-5.3-1.6-10.8,1.4-12.4,6.6s1.4,10.8,6.7,12.4l47,14.3c5.3,1.6,10.8-1.4,12.4-6.6
		S1148.9,527.6,1143.6,526z"/>
	<path class="st4" d="M1150.2,538.4c-0.6,2-1.9,3.8-3.6,5.1c-1.7,1.3-3.8,2-5.9,2c-1,0-2-0.1-2.9-0.4l-10.6-3.2
		c2.5,0.8,5.3,0.5,7.6-0.7c2.3-1.2,4.1-3.4,4.8-5.9c0.8-2.5,0.5-5.3-0.7-7.6c-1.2-2.3-3.4-4.1-5.9-4.8l10.6,3.2
		c1.3,0.4,2.4,1,3.4,1.8c1,0.8,1.9,1.9,2.5,3c0.6,1.2,1,2.4,1.1,3.7C1150.8,535.9,1150.6,537.2,1150.2,538.4L1150.2,538.4z"/>
	<path class="st2" d="M1055.8,645.8l47,14.3c2.5,0.8,4.7,2.5,5.9,4.8c1.2,2.3,1.5,5.1,0.8,7.6l-1.9,6.3c-0.1,0.4-0.3,0.8-0.6,1.2
		c-0.3,0.3-0.6,0.6-1,0.8s-0.8,0.3-1.3,0.4c-0.4,0-0.9,0-1.3-0.1l-59.7-18.1c-0.9-0.3-1.6-0.9-2-1.6c-0.4-0.8-0.5-1.7-0.2-2.6
		l1.9-6.3c0.8-2.5,2.5-4.7,4.8-5.9C1050.6,645.3,1053.3,645,1055.8,645.8L1055.8,645.8z"/>
	<path class="st4" d="M1102.9,660.1l-1.9-0.6c-0.6,1.6-1.3,3.1-2.1,4.6c-1.6,4.9-4,9.4-7.2,13.5l11.7,3.5c0.9,0.3,1.8,0.2,2.6-0.3
		c0.8-0.4,1.4-1.1,1.7-2l1.9-6.3c0.4-1.3,0.5-2.6,0.4-3.9c-0.1-1.3-0.5-2.6-1.1-3.7c-0.6-1.2-1.5-2.2-2.5-3
		C1105.3,661.1,1104.1,660.4,1102.9,660.1L1102.9,660.1z"/>
	<path class="st6" d="M1090.4,656.3l-22.1-6.7c0,0-0.1,0-0.1-0.1c0,0,0-0.1,0-0.1c8.1-18.4,15-37.2,20.9-56.3
		c10.4-34.3,14-58.4,14-58.4c0,0,0-0.1,0.1-0.1c0,0,0.1,0,0.1,0l22.1,6.7c0,0,0,0,0,0c0,0,0,0,0,0c0,0,0,0,0,0s0,0,0,0
		c-8.1,18.3-15,37.2-20.9,56.3c-8.5,28-14,58.4-14,58.4C1090.5,656.2,1090.5,656.2,1090.4,656.3
		C1090.4,656.3,1090.4,656.3,1090.4,656.3L1090.4,656.3z"/>
	<path class="st3" d="M1106.1,548.2c5.2,0,10.4,0.7,15.4,2.2c2.4-5.6,3.8-8.9,3.8-8.9c0,0,0,0,0,0s0,0,0,0c0,0,0,0,0,0c0,0,0,0,0,0
		l-22.1-6.7c0,0-0.1,0-0.1,0c0,0-0.1,0-0.1,0.1c0,0-0.8,5.1-2.6,13.8C1102.4,548.3,1104.3,548.2,1106.1,548.2z"/>
	<path class="st2" d="M1016.7,162.3c-8.3-0.4-16.1-3.9-22-9.8l-5.8-5.8l0.1-0.1c0.7-0.7,1.1-1.7,1.1-2.8c0-1-0.4-2-1.2-2.8
		c-0.7-0.7-1.7-1.2-2.8-1.2c-1,0-2,0.4-2.8,1.1l-7.6,7.6c-0.4,0.4-0.7,0.8-0.9,1.3c-0.2,0.5-0.3,1-0.3,1.5c0,0.5,0.1,1,0.3,1.5
		c0.2,0.5,0.5,0.9,0.9,1.3c0.4,0.4,0.8,0.7,1.3,0.9c0.5,0.2,1,0.3,1.5,0.3c0.5,0,1-0.1,1.5-0.3c0.5-0.2,0.9-0.5,1.3-0.9l0.1-0.1
		l5.8,5.8c5.9,5.8,9.4,13.6,9.8,21.9c0.1,3.7,1.3,7.2,3.4,10.2c2.1,3,5.1,5.3,8.5,6.7c3.4,1.4,7.2,1.7,10.8,1
		c3.6-0.7,6.9-2.5,9.5-5.1c2.6-2.6,4.4-5.9,5.2-9.5s0.5-7.3-0.9-10.8c-1.3-3.4-3.6-6.4-6.6-8.5
		C1024,163.6,1020.4,162.4,1016.7,162.3L1016.7,162.3z"/>
	<path class="st4" d="M989.1,141.1l-0.3-0.3c0.1,0,0.1,0.1,0.1,0.1C989,141,989.1,141,989.1,141.1L989.1,141.1z"/>
	<path class="st4" d="M1028.4,195.2c-3.5,3.1-8.1,4.7-12.7,4.7c-4.7-0.1-9.2-1.9-12.6-5.1c-3.5-3.3-5.6-7.8-5.9-12.5
		c2.1,3.7,5.4,6.5,9.4,8.1c4,1.6,8.3,1.8,12.4,0.5s7.6-3.8,10-7.3c2.4-3.5,3.6-7.7,3.3-11.9c2.1,3.8,2.9,8.2,2.2,12.4
		C1033.8,188.4,1031.7,192.3,1028.4,195.2L1028.4,195.2z"/>
	<path class="st2" d="M984,103.2c-1.5,0-2.9-0.4-4.2-1.3c-1.2-0.8-2.2-2-2.8-3.4s-0.7-2.9-0.4-4.3c0.3-1.5,1-2.8,2.1-3.8
		c1.1-1.1,2.4-1.8,3.8-2.1c1.5-0.3,3-0.1,4.3,0.4c1.4,0.6,2.5,1.5,3.4,2.8s1.3,2.7,1.3,4.2c0,2-0.8,3.9-2.2,5.3
		C987.9,102.4,985.9,103.2,984,103.2L984,103.2z M984,91.5c-0.8,0-1.7,0.2-2.4,0.7c-0.7,0.5-1.2,1.1-1.6,1.9
		c-0.3,0.8-0.4,1.6-0.2,2.4c0.2,0.8,0.6,1.6,1.2,2.2c0.6,0.6,1.3,1,2.2,1.2c0.8,0.2,1.7,0.1,2.4-0.2c0.8-0.3,1.4-0.9,1.9-1.6
		c0.5-0.7,0.7-1.5,0.7-2.4c0-1.1-0.4-2.2-1.2-3C986.2,91.9,985.1,91.5,984,91.5z"/>
	<path class="st2" d="M589.1,305.5c-1.5,0-2.9-0.4-4.2-1.3c-1.2-0.8-2.2-2-2.8-3.4c-0.6-1.4-0.7-2.9-0.4-4.3c0.3-1.5,1-2.8,2.1-3.8
		c1.1-1.1,2.4-1.8,3.8-2.1c1.5-0.3,3-0.1,4.3,0.4c1.4,0.6,2.5,1.5,3.4,2.8c0.8,1.2,1.3,2.7,1.3,4.2c0,2-0.8,3.9-2.2,5.3
		C593,304.7,591.1,305.5,589.1,305.5L589.1,305.5z M589.1,293.7c-0.8,0-1.7,0.2-2.4,0.7c-0.7,0.5-1.2,1.1-1.6,1.9
		c-0.3,0.8-0.4,1.6-0.2,2.4c0.2,0.8,0.6,1.6,1.2,2.2c0.6,0.6,1.3,1,2.2,1.2c0.8,0.2,1.7,0.1,2.4-0.2c0.8-0.3,1.4-0.9,1.9-1.6
		c0.5-0.7,0.7-1.5,0.7-2.4c0-1.1-0.4-2.2-1.2-3C591.3,294.2,590.3,293.7,589.1,293.7L589.1,293.7z"/>
	<path class="st2" d="M948.2,74.2c-2.2,0-4.4-0.7-6.2-1.9c-1.8-1.2-3.3-3-4.1-5c-0.8-2-1.1-4.3-0.6-6.5c0.4-2.2,1.5-4.2,3.1-5.7
		c1.6-1.6,3.6-2.6,5.7-3.1c2.2-0.4,4.4-0.2,6.5,0.6c2,0.8,3.8,2.3,5,4.1c1.2,1.8,1.9,4,1.9,6.2c0,3-1.2,5.8-3.3,7.9
		C954,73,951.2,74.2,948.2,74.2L948.2,74.2z M948.2,55.1c-1.6,0-3.1,0.5-4.4,1.3c-1.3,0.9-2.3,2.1-2.9,3.5c-0.6,1.4-0.8,3-0.5,4.6
		c0.3,1.5,1.1,2.9,2.2,4c1.1,1.1,2.5,1.9,4,2.2c1.5,0.3,3.1,0.1,4.6-0.5c1.4-0.6,2.7-1.6,3.5-2.9c0.9-1.3,1.3-2.8,1.3-4.4
		c0-2.1-0.8-4.1-2.3-5.6C952.3,56,950.3,55.1,948.2,55.1L948.2,55.1z"/>
	<path class="st2" d="M581.9,271.8c-1.9,0-3.8-0.6-5.4-1.6c-1.6-1.1-2.9-2.6-3.6-4.4c-0.7-1.8-0.9-3.8-0.6-5.6
		c0.4-1.9,1.3-3.6,2.7-5c1.4-1.4,3.1-2.3,5-2.7c1.9-0.4,3.9-0.2,5.6,0.6c1.8,0.7,3.3,2,4.4,3.6c1.1,1.6,1.6,3.5,1.6,5.4
		c0,2.6-1,5.1-2.9,6.9C586.9,270.8,584.5,271.8,581.9,271.8z M581.9,255.6c-1.3,0-2.5,0.4-3.6,1.1c-1.1,0.7-1.9,1.7-2.4,2.9
		c-0.5,1.2-0.6,2.5-0.4,3.8c0.3,1.3,0.9,2.4,1.8,3.3c0.9,0.9,2.1,1.5,3.3,1.8c1.3,0.3,2.6,0.1,3.8-0.4c1.2-0.5,2.2-1.3,2.9-2.4
		s1.1-2.3,1.1-3.6c0-1.7-0.7-3.4-1.9-4.6C585.2,256.3,583.6,255.6,581.9,255.6z"/>
	<path class="st2" d="M963.6,32.5c-2.9,0-5.8-0.9-8.2-2.5c-2.4-1.6-4.3-3.9-5.5-6.7c-1.1-2.7-1.4-5.7-0.8-8.6c0.6-2.9,2-5.5,4.1-7.6
		c2.1-2.1,4.7-3.5,7.6-4.1s5.9-0.3,8.6,0.8c2.7,1.1,5,3,6.7,5.5c1.6,2.4,2.5,5.3,2.5,8.2c0,3.9-1.6,7.7-4.3,10.5
		C971.3,30.9,967.5,32.5,963.6,32.5L963.6,32.5z M963.6,6.1c-2.3,0-4.5,0.7-6.4,1.9c-1.9,1.3-3.4,3.1-4.3,5.2
		c-0.9,2.1-1.1,4.4-0.7,6.7c0.4,2.2,1.5,4.3,3.2,5.9c1.6,1.6,3.7,2.7,5.9,3.2c2.2,0.4,4.6,0.2,6.7-0.7c2.1-0.9,3.9-2.4,5.2-4.3
		c1.3-1.9,1.9-4.1,1.9-6.4c0-3.1-1.2-6-3.4-8.2C969.6,7.3,966.7,6.1,963.6,6.1L963.6,6.1z"/>
	<path class="st2" d="M544.6,269c-2.3,0-4.6-0.7-6.5-2c-1.9-1.3-3.4-3.1-4.3-5.2c-0.9-2.1-1.1-4.5-0.7-6.8c0.4-2.3,1.6-4.4,3.2-6
		c1.6-1.6,3.7-2.8,6-3.2c2.3-0.5,4.6-0.2,6.8,0.6c2.1,0.9,4,2.4,5.3,4.3c1.3,1.9,2,4.2,2,6.5c0,3.1-1.2,6.1-3.4,8.3
		C550.7,267.8,547.7,269,544.6,269L544.6,269z M544.6,248.9c-1.7,0-3.3,0.5-4.7,1.4c-1.4,0.9-2.5,2.2-3.1,3.8
		c-0.6,1.5-0.8,3.2-0.5,4.9c0.3,1.6,1.1,3.1,2.3,4.3c1.2,1.2,2.7,2,4.3,2.3c1.6,0.3,3.3,0.2,4.9-0.5c1.5-0.6,2.9-1.7,3.8-3.1
		c0.9-1.4,1.4-3,1.4-4.7c0-2.2-0.9-4.4-2.5-5.9C549,249.8,546.8,248.9,544.6,248.9L544.6,248.9z"/>
	<path class="st2" d="M954.1,123.7c-1.5,0-2.9-0.4-4.2-1.3c-1.2-0.8-2.2-2-2.8-3.4c-0.6-1.4-0.7-2.9-0.4-4.3s1-2.8,2.1-3.8
		c1-1.1,2.4-1.8,3.8-2.1c1.5-0.3,3-0.1,4.3,0.4c1.4,0.6,2.5,1.5,3.4,2.8s1.3,2.7,1.3,4.2c0,2-0.8,3.9-2.2,5.3
		C958,122.9,956.1,123.7,954.1,123.7L954.1,123.7z M954.1,111.9c-0.8,0-1.7,0.2-2.4,0.7c-0.7,0.5-1.2,1.1-1.6,1.9
		c-0.3,0.8-0.4,1.6-0.2,2.4c0.2,0.8,0.6,1.6,1.2,2.2c0.6,0.6,1.3,1,2.2,1.2c0.8,0.2,1.7,0.1,2.4-0.2c0.8-0.3,1.4-0.9,1.9-1.6
		c0.5-0.7,0.7-1.5,0.7-2.4c0-1.1-0.4-2.2-1.2-3C956.3,112.4,955.2,111.9,954.1,111.9L954.1,111.9z"/>
	<path class="st2" d="M885.3,25.7c-2.9,1.6-5.4,4-6.9,6.9c-0.2,0.4-0.5,0.7-0.8,0.9c-0.3,0.2-0.7,0.3-1.1,0.3
		c-0.4,0-0.8-0.1-1.1-0.3c-0.3-0.2-0.6-0.5-0.8-0.9c-1.6-2.9-4-5.4-6.9-6.9c-0.4-0.2-0.7-0.5-0.9-0.8c-0.2-0.3-0.3-0.7-0.3-1.1
		c0-0.4,0.1-0.8,0.3-1.1c0.2-0.3,0.5-0.6,0.9-0.8c2.9-1.6,5.4-4,6.9-6.9c0.2-0.4,0.5-0.7,0.8-0.9c0.3-0.2,0.7-0.3,1.1-0.3
		c0.4,0,0.8,0.1,1.1,0.3c0.3,0.2,0.6,0.5,0.8,0.9c1.6,2.9,4,5.3,6.9,6.9c0.4,0.2,0.6,0.5,0.9,0.8c0.2,0.3,0.3,0.7,0.3,1.1
		c0,0.4-0.1,0.8-0.3,1.1C885.9,25.2,885.6,25.5,885.3,25.7L885.3,25.7z"/>
	<path class="st2" d="M658.8,114.3c-2.9,1.6-5.4,4-6.9,6.9c-0.2,0.4-0.5,0.7-0.8,0.9c-0.3,0.2-0.7,0.3-1.1,0.3
		c-0.4,0-0.8-0.1-1.1-0.3c-0.3-0.2-0.6-0.5-0.8-0.9c-1.6-2.9-4-5.4-6.9-6.9c-0.4-0.2-0.7-0.5-0.9-0.8c-0.2-0.3-0.3-0.7-0.3-1.1
		s0.1-0.8,0.3-1.1c0.2-0.3,0.5-0.6,0.9-0.8c2.9-1.6,5.4-4,6.9-6.9c0.2-0.4,0.5-0.7,0.8-0.9c0.3-0.2,0.7-0.3,1.1-0.3
		c0.4,0,0.8,0.1,1.1,0.3c0.3,0.2,0.6,0.5,0.8,0.9c1.6,2.9,4,5.4,6.9,6.9c0.4,0.2,0.6,0.5,0.9,0.8c0.2,0.3,0.3,0.7,0.3,1.1
		c0,0.4-0.1,0.8-0.3,1.1C659.5,113.8,659.2,114.1,658.8,114.3L658.8,114.3z"/>
	<path class="st2" d="M684.2,299.9c-2.9,1.6-5.4,4-6.9,6.9c-0.2,0.4-0.5,0.7-0.8,0.9c-0.3,0.2-0.7,0.3-1.1,0.3
		c-0.4,0-0.8-0.1-1.1-0.3c-0.3-0.2-0.6-0.5-0.8-0.9c-1.6-2.9-4-5.4-6.9-6.9c-0.4-0.2-0.7-0.5-0.9-0.8c-0.2-0.3-0.3-0.7-0.3-1.1
		c0-0.4,0.1-0.8,0.3-1.1c0.2-0.3,0.5-0.6,0.9-0.8c2.9-1.6,5.4-4,6.9-6.9c0.2-0.4,0.5-0.7,0.8-0.9c0.3-0.2,0.7-0.3,1.1-0.3
		c0.4,0,0.8,0.1,1.1,0.3c0.3,0.2,0.6,0.5,0.8,0.9c1.6,2.9,4,5.4,6.9,6.9c0.4,0.2,0.6,0.5,0.9,0.8c0.2,0.3,0.3,0.7,0.3,1.1
		c0,0.4-0.1,0.8-0.3,1.1C684.8,299.4,684.5,299.7,684.2,299.9L684.2,299.9z"/>
	<path class="st2" d="M548.6,641.6c-2.6,1.4-4.8,3.6-6.2,6.2c-0.2,0.3-0.4,0.6-0.7,0.8c-0.3,0.2-0.7,0.3-1,0.3c-0.4,0-0.7-0.1-1-0.3
		c-0.3-0.2-0.6-0.5-0.7-0.8c-1.4-2.6-3.6-4.8-6.2-6.2c-0.3-0.2-0.6-0.4-0.8-0.7c-0.2-0.3-0.3-0.7-0.3-1c0-0.4,0.1-0.7,0.3-1
		c0.2-0.3,0.5-0.6,0.8-0.7c2.6-1.4,4.8-3.6,6.2-6.2c0.2-0.3,0.4-0.6,0.7-0.8c0.3-0.2,0.7-0.3,1-0.3c0.4,0,0.7,0.1,1,0.3
		c0.3,0.2,0.6,0.5,0.7,0.8c1.4,2.6,3.6,4.8,6.2,6.2c0.3,0.2,0.6,0.4,0.8,0.7c0.2,0.3,0.3,0.7,0.3,1c0,0.4-0.1,0.7-0.3,1
		C549.2,641.1,548.9,641.4,548.6,641.6L548.6,641.6z"/>
	<path class="st2" d="M568.4,611.5c-1.8,0.9-3.2,2.4-4.2,4.2c-0.1,0.2-0.3,0.4-0.5,0.5c-0.2,0.1-0.4,0.2-0.7,0.2
		c-0.2,0-0.5-0.1-0.7-0.2s-0.4-0.3-0.5-0.5c-1-1.8-2.4-3.2-4.2-4.2c-0.2-0.1-0.4-0.3-0.5-0.5c-0.1-0.2-0.2-0.4-0.2-0.7
		s0.1-0.5,0.2-0.7s0.3-0.4,0.5-0.5c1.8-1,3.2-2.4,4.2-4.2c0.1-0.2,0.3-0.4,0.5-0.5c0.2-0.1,0.4-0.2,0.7-0.2c0.2,0,0.5,0.1,0.7,0.2
		c0.2,0.1,0.4,0.3,0.5,0.5c1,1.8,2.4,3.2,4.2,4.2c0.2,0.1,0.4,0.3,0.5,0.5s0.2,0.4,0.2,0.7s-0.1,0.5-0.2,0.7
		C568.7,611.2,568.6,611.4,568.4,611.5L568.4,611.5z"/>
	<path class="st2" d="M256.8,537.4c-2.9,1.6-5.4,4-6.9,6.9c-0.2,0.4-0.5,0.7-0.8,0.9c-0.3,0.2-0.7,0.3-1.1,0.3
		c-0.4,0-0.8-0.1-1.1-0.3c-0.3-0.2-0.6-0.5-0.8-0.9c-1.6-2.9-4-5.4-6.9-6.9c-0.4-0.2-0.7-0.5-0.9-0.8c-0.2-0.3-0.3-0.7-0.3-1.1
		c0-0.4,0.1-0.8,0.3-1.1c0.2-0.3,0.5-0.6,0.9-0.8c2.9-1.6,5.4-4,6.9-7c0.2-0.4,0.5-0.7,0.8-0.9c0.3-0.2,0.7-0.3,1.1-0.3
		c0.4,0,0.8,0.1,1.1,0.3c0.3,0.2,0.6,0.5,0.8,0.9c1.6,2.9,4,5.4,6.9,6.9c0.4,0.2,0.7,0.5,0.9,0.8c0.2,0.3,0.3,0.7,0.3,1.2
		c0,0.4-0.1,0.8-0.3,1.2C257.4,536.9,257.1,537.2,256.8,537.4L256.8,537.4z"/>
	<path class="st2" d="M226.7,564.1c-2.5,1.3-4.5,3.3-5.8,5.8c-0.2,0.3-0.4,0.6-0.7,0.7c-0.3,0.2-0.6,0.3-1,0.3s-0.7-0.1-1-0.3
		c-0.3-0.2-0.5-0.4-0.7-0.7c-1.3-2.4-3.3-4.4-5.8-5.7c-0.3-0.2-0.5-0.4-0.7-0.7c-0.2-0.3-0.3-0.6-0.3-1c0-0.3,0.1-0.7,0.3-1
		c0.2-0.3,0.4-0.5,0.7-0.7c2.5-1.3,4.5-3.3,5.8-5.8c0.2-0.3,0.4-0.6,0.7-0.7c0.3-0.2,0.6-0.3,1-0.3s0.7,0.1,1,0.3
		c0.3,0.2,0.5,0.4,0.7,0.7c1.3,2.5,3.3,4.5,5.8,5.8c0.3,0.2,0.5,0.4,0.7,0.7c0.2,0.3,0.3,0.6,0.3,0.9c0,0.3-0.1,0.7-0.3,0.9
		C227.2,563.7,227,564,226.7,564.1L226.7,564.1z"/>
	<path class="st2" d="M215.2,524.8c-1.4,0.8-2.6,1.9-3.4,3.4c-0.1,0.2-0.2,0.3-0.4,0.4c-0.2,0.1-0.4,0.2-0.6,0.2
		c-0.2,0-0.4-0.1-0.6-0.2c-0.2-0.1-0.3-0.2-0.4-0.4c-0.8-1.4-1.9-2.6-3.4-3.4c-0.2-0.1-0.3-0.2-0.4-0.4s-0.2-0.4-0.2-0.6
		c0-0.2,0.1-0.4,0.2-0.6c0.1-0.2,0.2-0.3,0.4-0.4c1.4-0.8,2.6-1.9,3.4-3.4c0.1-0.2,0.2-0.3,0.4-0.4c0.2-0.1,0.4-0.2,0.6-0.2
		c0.2,0,0.4,0.1,0.6,0.2c0.2,0.1,0.3,0.2,0.4,0.4c0.8,1.4,1.9,2.6,3.4,3.4c0.2,0.1,0.3,0.2,0.4,0.4c0.1,0.2,0.2,0.4,0.2,0.6
		c0,0.2-0.1,0.4-0.2,0.6C215.5,524.5,215.4,524.7,215.2,524.8L215.2,524.8z"/>
	<path class="st2" d="M509.9,224.4c-3,1.6-5.4,4-6.9,6.9c-0.2,0.4-0.5,0.7-0.8,0.9c-0.3,0.2-0.7,0.3-1.1,0.3c-0.4,0-0.8-0.1-1.1-0.3
		c-0.3-0.2-0.6-0.5-0.8-0.9c-1.6-2.9-4-5.4-6.9-6.9c-0.4-0.2-0.7-0.5-0.9-0.8c-0.2-0.3-0.3-0.7-0.3-1.1c0-0.4,0.1-0.8,0.3-1.1
		c0.2-0.3,0.5-0.6,0.9-0.8c2.9-1.6,5.4-4,6.9-6.9c0.2-0.4,0.5-0.7,0.8-0.9c0.3-0.2,0.7-0.3,1.1-0.3c0.4,0,0.8,0.1,1.1,0.3
		c0.3,0.2,0.6,0.5,0.8,0.9c1.6,2.9,4,5.4,6.9,6.9c0.4,0.2,0.7,0.5,0.9,0.8c0.2,0.3,0.3,0.7,0.3,1.1c0,0.4-0.1,0.8-0.3,1.1
		C510.5,223.9,510.2,224.2,509.9,224.4L509.9,224.4z"/>
	<path class="st2" d="M1042.4,259.2c-3,1.6-5.4,4-6.9,6.9c-0.2,0.4-0.5,0.7-0.8,0.9c-0.3,0.2-0.7,0.3-1.1,0.3s-0.8-0.1-1.1-0.3
		c-0.3-0.2-0.6-0.5-0.8-0.9c-1.6-2.9-4-5.4-6.9-6.9c-0.4-0.2-0.7-0.5-0.9-0.8c-0.2-0.3-0.3-0.7-0.3-1.1c0-0.4,0.1-0.8,0.3-1.1
		c0.2-0.3,0.5-0.6,0.9-0.8c2.9-1.6,5.4-4,6.9-6.9c0.2-0.4,0.5-0.7,0.8-0.9c0.3-0.2,0.7-0.3,1.1-0.3s0.8,0.1,1.1,0.3
		c0.3,0.2,0.6,0.5,0.8,0.9c1.6,2.9,4,5.4,6.9,6.9c0.3,0.2,0.7,0.5,0.8,0.8c0.2,0.3,0.3,0.7,0.3,1.1c0,0.4-0.1,0.8-0.3,1.1
		C1043.1,258.8,1042.8,259.1,1042.4,259.2L1042.4,259.2z"/>
	<path class="st2" d="M1036.7,516c-2,1.1-3.6,2.7-4.7,4.7c-0.1,0.2-0.3,0.4-0.5,0.6c-0.2,0.1-0.5,0.2-0.8,0.2s-0.5-0.1-0.8-0.2
		c-0.2-0.1-0.4-0.3-0.5-0.6c-1.1-2-2.7-3.6-4.7-4.7c-0.2-0.1-0.4-0.3-0.6-0.6c-0.1-0.2-0.2-0.5-0.2-0.8c0-0.3,0.1-0.5,0.2-0.8
		s0.3-0.4,0.6-0.6c2-1.1,3.7-2.7,4.7-4.7c0.1-0.2,0.3-0.4,0.5-0.6c0.2-0.1,0.5-0.2,0.8-0.2s0.5,0.1,0.8,0.2c0.2,0.1,0.4,0.3,0.5,0.6
		c1.1,2,2.7,3.6,4.7,4.7c0.2,0.1,0.4,0.3,0.6,0.6c0.1,0.2,0.2,0.5,0.2,0.8c0,0.3-0.1,0.5-0.2,0.8
		C1037.1,515.7,1036.9,515.9,1036.7,516L1036.7,516z"/>
	<path class="st2" d="M1016.3,495.4c-2.5,1.3-4.5,3.4-5.9,5.9c-0.2,0.3-0.4,0.5-0.7,0.7c-0.3,0.2-0.6,0.3-0.9,0.3
		c-0.3,0-0.7-0.1-1-0.3c-0.3-0.2-0.5-0.4-0.7-0.7c-1.3-2.5-3.4-4.5-5.9-5.9c-0.3-0.2-0.5-0.4-0.7-0.7c-0.2-0.3-0.3-0.6-0.3-1
		c0-0.3,0.1-0.7,0.3-1c0.2-0.3,0.4-0.5,0.7-0.7c2.5-1.3,4.5-3.4,5.9-5.9c0.2-0.3,0.4-0.5,0.7-0.7c0.3-0.2,0.6-0.3,1-0.3
		c0.3,0,0.7,0.1,0.9,0.3c0.3,0.2,0.5,0.4,0.7,0.7c1.3,2.5,3.4,4.5,5.9,5.9c0.3,0.2,0.5,0.4,0.7,0.7s0.3,0.6,0.3,1
		c0,0.3-0.1,0.7-0.3,1C1016.9,495,1016.7,495.2,1016.3,495.4L1016.3,495.4z"/>
	<path class="st2" d="M847,66.7c-2,1.1-3.7,2.7-4.8,4.8c-0.1,0.2-0.3,0.5-0.6,0.6c-0.2,0.1-0.5,0.2-0.8,0.2c-0.3,0-0.5-0.1-0.8-0.2
		c-0.2-0.1-0.4-0.3-0.6-0.6c-1.1-2-2.7-3.7-4.8-4.8c-0.2-0.1-0.5-0.3-0.6-0.6c-0.1-0.2-0.2-0.5-0.2-0.8c0-0.3,0.1-0.6,0.2-0.8
		c0.1-0.2,0.3-0.4,0.6-0.6c2-1.1,3.7-2.8,4.8-4.8c0.1-0.2,0.3-0.5,0.6-0.6c0.2-0.1,0.5-0.2,0.8-0.2s0.5,0.1,0.8,0.2
		c0.2,0.1,0.4,0.3,0.6,0.6c1.1,2,2.8,3.7,4.8,4.8c0.2,0.1,0.4,0.3,0.6,0.6c0.1,0.2,0.2,0.5,0.2,0.8c0,0.3-0.1,0.5-0.2,0.8
		C847.4,66.4,847.2,66.6,847,66.7L847,66.7z"/>
	<path class="st2" d="M686,134.2c-2,1.1-3.7,2.8-4.8,4.8c-0.1,0.2-0.3,0.5-0.6,0.6c-0.2,0.1-0.5,0.2-0.8,0.2s-0.5-0.1-0.8-0.2
		c-0.2-0.1-0.4-0.3-0.6-0.6c-1.1-2-2.7-3.7-4.8-4.8c-0.2-0.1-0.5-0.3-0.6-0.6c-0.1-0.2-0.2-0.5-0.2-0.8s0.1-0.6,0.2-0.8
		c0.1-0.2,0.3-0.4,0.6-0.6c2-1.1,3.7-2.7,4.8-4.8c0.1-0.2,0.3-0.5,0.6-0.6c0.2-0.1,0.5-0.2,0.8-0.2s0.5,0.1,0.8,0.2
		c0.2,0.1,0.4,0.3,0.6,0.6c1.1,2,2.8,3.7,4.8,4.8c0.2,0.1,0.5,0.3,0.6,0.6c0.1,0.2,0.2,0.5,0.2,0.8s-0.1,0.6-0.2,0.8
		C686.5,133.9,686.3,134.1,686,134.2z"/>
	<path class="st2" d="M295,495.7l31.4-12.6l9.5,23.6c0.2,0.5,0.3,1,0.3,1.5c0,0.5-0.1,1-0.3,1.5c-0.2,0.5-0.5,0.9-0.9,1.3
		c-0.4,0.4-0.8,0.6-1.3,0.8l-24.1,9.7c-1,0.4-2.1,0.4-3,0c-1-0.4-1.7-1.2-2.1-2.2L295,495.7L295,495.7z"/>
	<path class="st4" d="M298.7,503.1c8.2-8,19.2-12.6,30.7-12.8l-3-7.2L295,495.7l3.2,7.9C298.4,503.5,298.5,503.3,298.7,503.1z"/>
	<path class="st6" d="M324,471.9l-34.9,14c-1.5,0.6-2.2,2.3-1.6,3.7l2,5.1c0.6,1.5,2.3,2.2,3.7,1.6l34.9-14c1.5-0.6,2.2-2.3,1.6-3.7
		l-2-5.1C327.2,472.1,325.5,471.3,324,471.9z"/>
	<path class="st3" d="M329.8,478.6l-2-5.1c-0.3-0.7-0.8-1.3-1.5-1.6c-0.7-0.3-1.5-0.3-2.2,0l-2.9,1.2c-2.2,5.8-5.6,11.1-10,15.6
		c-0.3,0.3-0.6,0.6-1,0.9l18-7.3c0.4-0.1,0.7-0.3,1-0.6c0.3-0.3,0.5-0.6,0.6-0.9c0.2-0.4,0.2-0.7,0.2-1.1
		C330,479.3,329.9,479,329.8,478.6z"/>
	<path class="st2" d="M290.8,485.3c0,0-4.3-11.9-21.9-17.6c0,0,21.6-7.2,30.2,14.2L290.8,485.3z"/>
	<path class="st4" d="M293.9,484l-3.1,1.2c0,0-4.3-11.9-21.9-17.6h0.1c2.7-0.8,5.6-0.6,8.1,0.6C288.2,473.8,292.9,482.1,293.9,484z"
		/>
	<path class="st2" d="M322.3,472.6c0,0-5.3-12,3.8-28.9c0,0-21.3,10.1-12.4,32.3L322.3,472.6z"/>
	<path class="st4" d="M322.3,472.7l-3.4,1.4c-0.7-1.7-3.8-11.5,2.2-25c1-2.2,2.7-4,4.9-5.2l0.2-0.1
		C316.9,460.6,322.3,472.7,322.3,472.7z"/>
	<path class="st2" d="M263,452.2c0,0,36.3-12.1,50.8,23.9l-14.6,5.9C299.1,482,292.6,461.6,263,452.2"/>
	<path class="st4" d="M313.7,476.1l-14.6,5.9c0,0-6.5-20.3-36.1-29.8c2.7-0.8,5.4-1.4,8.2-1.6c16.5,5.9,25.4,15.1,29.8,21.6
		c1.3,2,3.3,3.5,5.6,4.2c2.3,0.7,4.8,0.6,7-0.3l0.1-0.1C313.7,476,313.7,476,313.7,476.1L313.7,476.1z"/>
	<path class="st2" d="M378.9,580.2l-106.6-32.6l-5.8,19.1L373,599.3L378.9,580.2z"/>
	<path class="st4" d="M375,592.6l-2.1,6.7l-106.5-32.6l2.1-6.7h0L375,592.6z"/>
	<path class="st6" d="M360.3,640.9l-19.1-5.8l-2.1,6.7l19.1,5.8L360.3,640.9z"/>
	<path class="st2" d="M373,599.3l-19.1-5.8L341.2,635l19.1,5.8L373,599.3z"/>
	<path class="st6" d="M272.8,614.1l-19.1-5.8l-2.1,6.7l19.1,5.8L272.8,614.1z"/>
	<path class="st2" d="M285.6,572.5l-19.1-5.8l-12.7,41.6l19.1,5.8L285.6,572.5z"/>
	<path class="st4" d="M366.7,619.8l6.3-20.5l-19.1-5.8l-2.5,8.1C358.8,602,366.4,610.3,366.7,619.8z"/>
	<path class="st4" d="M279.1,593.4l6.4-20.9l-19.1-5.8l-2.3,7.5C271.4,574.8,277,580.6,279.1,593.4z"/>
	<path class="st6" d="M380.9,581.8l-5.3,17.4l-0.1,0.3c-0.3,0.8-0.9,1.4-1.6,1.7c-0.7,0.4-1.6,0.4-2.4,0.2L354,596
		c-0.4-0.1-0.8-0.3-1.1-0.6c-0.3-0.3-0.6-0.6-0.8-1c-0.2-0.4-0.3-0.8-0.4-1.2c0-0.4,0-0.9,0.1-1.3l1.5-4.9l3.8-12.5
		c0.1-0.4,0.3-0.8,0.6-1.1c0.3-0.3,0.6-0.6,1-0.8c0.4-0.2,0.8-0.3,1.2-0.4c0.4,0,0.9,0,1.3,0.1l17.4,5.3c0.4,0.1,0.8,0.3,1.1,0.6
		s0.6,0.6,0.8,1c0.2,0.4,0.3,0.8,0.4,1.2C381.1,580.9,381,581.3,380.9,581.8z"/>
	<path class="st6" d="M293.4,555l-2.9,9.5l-2.5,8c-0.3,0.8-0.9,1.5-1.6,1.9s-1.7,0.5-2.5,0.2l-17.5-5.4c-0.8-0.3-1.5-0.9-1.9-1.6
		c-0.4-0.8-0.5-1.7-0.2-2.5l1-3.3l4.3-14.1c0.1-0.4,0.3-0.8,0.6-1.1c0.3-0.3,0.6-0.6,1-0.8c0.4-0.2,0.8-0.3,1.2-0.4
		c0.4,0,0.9,0,1.3,0.1l17.4,5.3c0.4,0.1,0.8,0.3,1.2,0.6c0.3,0.3,0.6,0.6,0.8,1c0.2,0.4,0.3,0.8,0.4,1.3
		C293.6,554.1,293.6,554.6,293.4,555L293.4,555z"/>
	<path class="st3" d="M377.8,592l-2.2,7.2l-0.1,0.3c-0.3,0.8-0.9,1.4-1.6,1.7c-0.7,0.4-1.6,0.4-2.4,0.2L354,596
		c-0.4-0.1-0.8-0.3-1.1-0.6c-0.3-0.3-0.6-0.6-0.8-1c-0.2-0.4-0.3-0.8-0.4-1.2c0-0.4,0-0.9,0.1-1.3l1.5-4.9c4.8,4,10.8,6.1,16.9,6.1
		C372.8,593.1,375.3,592.7,377.8,592L377.8,592z"/>
	<path class="st3" d="M290.5,564.5l-2.5,8c-0.3,0.8-0.9,1.5-1.6,1.9s-1.7,0.5-2.5,0.2l-17.5-5.4c-0.8-0.3-1.5-0.9-1.9-1.6
		c-0.4-0.8-0.5-1.7-0.2-2.5l1-3.3c3.6,2.5,7.8,4.1,12.2,4.6C282,566.9,286.4,566.2,290.5,564.5L290.5,564.5z"/>
	<path class="st2" d="M343.3,523.6c-0.3,0-0.6-0.1-0.9-0.3c-0.3-0.2-0.5-0.4-0.6-0.7c-0.1-0.3-0.2-0.6-0.1-0.9
		c0.1-0.3,0.2-0.6,0.4-0.8c2.9-3,5.2-6.5,6.7-10.4c0.1-0.2,0.2-0.4,0.3-0.6c0.1-0.2,0.3-0.3,0.5-0.4c0.2-0.1,0.4-0.1,0.6-0.1
		c0.2,0,0.4,0,0.6,0.1c0.2,0.1,0.4,0.2,0.5,0.4c0.2,0.2,0.3,0.3,0.4,0.5c0.1,0.2,0.1,0.4,0.1,0.6c0,0.2,0,0.4-0.1,0.6
		c-1.7,4.3-4.2,8.2-7.4,11.5c-0.2,0.2-0.3,0.3-0.5,0.4C343.8,523.6,343.6,523.6,343.3,523.6z"/>
	<path class="st2" d="M350.4,525.7c-0.4,0-0.7-0.1-1-0.4c-0.3-0.3-0.6-0.7-0.6-1.1c0-0.4,0.1-0.9,0.4-1.2c3.1-3.8,5.4-8.1,6.9-12.7
		c0.1-0.2,0.2-0.4,0.3-0.6c0.1-0.2,0.3-0.3,0.5-0.4c0.2-0.1,0.4-0.2,0.6-0.2c0.2,0,0.4,0,0.6,0.1c0.2,0.1,0.4,0.2,0.6,0.3
		c0.2,0.1,0.3,0.3,0.4,0.5c0.1,0.2,0.2,0.4,0.2,0.6c0,0.2,0,0.4-0.1,0.6c-1.6,5-4.2,9.7-7.5,13.7c-0.2,0.2-0.3,0.3-0.6,0.4
		C350.9,525.7,350.6,525.7,350.4,525.7z"/>
	<path class="st2" d="M561.6,364.6c-0.4,0-0.8-0.2-1.2-0.5c-2.3-2.3-5.1-4.2-8.2-5.5c-0.2-0.1-0.4-0.2-0.6-0.4
		c-0.2-0.2-0.3-0.3-0.4-0.5c-0.1-0.2-0.1-0.4-0.1-0.6c0-0.2,0-0.4,0.1-0.6c0.1-0.2,0.2-0.4,0.4-0.5c0.2-0.2,0.3-0.3,0.6-0.4
		c0.2-0.1,0.4-0.1,0.6-0.1c0.2,0,0.4,0.1,0.6,0.2c3.4,1.4,6.6,3.5,9.2,6.2c0.2,0.2,0.3,0.3,0.4,0.5c0.1,0.2,0.1,0.4,0.1,0.6
		c0,0.2,0,0.4-0.1,0.6c-0.1,0.2-0.2,0.4-0.4,0.5C562.5,364.5,562,364.6,561.6,364.6z"/>
	<path class="st2" d="M563.2,357.1c-0.4,0-0.8-0.1-1.1-0.4c-3-2.5-6.3-4.4-10-5.6c-0.2-0.1-0.4-0.2-0.6-0.3s-0.3-0.3-0.4-0.5
		s-0.1-0.4-0.2-0.6s0-0.4,0.1-0.6c0.1-0.2,0.2-0.4,0.3-0.6c0.1-0.2,0.3-0.3,0.5-0.4c0.2-0.1,0.4-0.1,0.6-0.2c0.2,0,0.4,0,0.6,0.1
		c4,1.4,7.8,3.5,11,6.3c0.3,0.2,0.4,0.5,0.5,0.8s0.1,0.7,0,1c-0.1,0.3-0.3,0.6-0.6,0.8C563.8,357,563.5,357.1,563.2,357.1
		L563.2,357.1z"/>
	<path class="st2" d="M655.7,644.3c0,0.9-0.4,1.8-1,2.5c-0.7,0.7-1.6,1-2.5,1c-0.7,0-1.4-0.2-2-0.6c-0.6-0.4-1-0.9-1.3-1.6
		c-1.2-2.3-3-4.3-5.2-5.8c-2.2-1.4-4.8-2.2-7.4-2.3c-2-0.1-4.1,0.1-6,0.8c-1.9,0.7-3.7,1.7-5.3,3.1c-1.5,1.4-2.8,3-3.6,4.9
		c-0.9,1.9-1.4,3.9-1.5,5.9c-0.3,6.7,3.5,12.9,9.4,14.9c0.7,0.3,1.3,0.8,1.6,1.4c0.3,0.7,0.4,1.4,0.2,2.1c-0.4,1.8-2,2.3-3.3,2.5
		c-0.4,0.1-0.8,0.1-1.2,0l-0.4-0.1l-0.4-0.1l-0.4-0.1c-0.6-0.2-1.1-0.4-1.6-0.6l-0.4-0.2l-0.6-0.3c-0.2-0.1-0.4-0.2-0.6-0.3
		c-1.5-0.8-2.9-1.8-4.2-2.8c-2.2-1.8-4.4-3.4-6.8-4.9c-2.4-1.3-5.1-2.1-7.8-2.5c0.4-2.9-0.3-5.9-1.8-8.5c0-2.5,0.3-5,0.8-7.4
		c0.5-2.1,1.1-4.1,2-6.1c2.6-6,7-11.1,12.5-14.7c5.5-3.6,11.9-5.5,18.5-5.5c0,0,7.3-6.4,3.7-15c-2.4-5.7-5.7-12-5.7-17.9
		c0-3.1,1-6,3-8.4c0.5-0.6,1.1-1,1.8-1.2c0.7-0.2,1.5-0.2,2.2,0.1c0.7,0.2,1.3,0.7,1.7,1.3c0.4,0.6,0.7,1.3,0.7,2.1
		c0,0.7-0.2,1.4-0.5,2.1c-3.1,7.3,1.7,13.9,4.8,21.3c3.5,8.6-2,17.9-2,17.9s8.8,6.7,10.7,22.3C655.7,643.9,655.7,644.1,655.7,644.3
		L655.7,644.3z"/>
	<path class="st4" d="M655.7,644.3c0,0.9-0.4,1.8-1,2.5c-0.7,0.7-1.6,1-2.5,1c-0.7,0-1.4-0.2-2-0.6c-0.6-0.4-1-0.9-1.3-1.6
		c-1.2-2.3-3-4.3-5.2-5.8c-2.2-1.4-4.8-2.2-7.4-2.3c-3.3-0.2-6.7,0.6-9.5,2.4c-2.8,1.8-4.9,4.5-6.1,7.6c0.9-10,10.4-18.1,20.4-18.1
		c4.3,0,8.4,1.3,11.9,3.9c1.3,3.3,2.2,6.8,2.6,10.3C655.7,643.9,655.7,644.1,655.7,644.3L655.7,644.3z"/>
	<path class="st4" d="M646.7,623.1c0.2,0.2,0.5,0.5,0.7,0.8C647.2,623.6,647,623.3,646.7,623.1z"/>
	<path class="st4" d="M626.7,673.2l-0.4-0.1l-0.4-0.1l-0.4-0.1c-0.6-0.2-1.1-0.4-1.6-0.6l-0.4-0.2l-0.6-0.3
		c-0.2-0.1-0.4-0.2-0.6-0.3c-1.5-0.8-2.9-1.8-4.2-2.8c-2.2-1.8-4.4-3.4-6.8-4.9c-2.4-1.3-5.1-2.1-7.8-2.5c0.4-2.9-0.3-5.9-1.8-8.5
		c0-0.2,0.4-3.8,0.8-7.4c0.5-2.1,1.1-4.1,2-6.1c5.6,4.4,9.5,19.7,14.4,24.1C621.9,666.4,624.5,669.6,626.7,673.2L626.7,673.2z"/>
	<path class="st6" d="M612,674.6c0,0.9-0.3,1.8-0.9,2.5c-0.6,0.7-1.4,1.1-2.3,1.3c-0.2,0-0.3,0-0.5,0c-0.8,0-1.6-0.3-2.3-0.8
		c-0.7-0.5-1.1-1.2-1.3-2l-2.2-10.6c0.5-1.1,0.8-2.3,1-3.6h0.1c2.7,0.1,5.4,0.9,7.7,2.3l0.3,0.2L612,674.6z"/>
	<path class="st6" d="M640.4,638.3l-1.9,9.9c-0.2,0.9-0.7,1.7-1.4,2.2c-0.7,0.5-1.6,0.8-2.5,0.7c-0.2,0-0.3,0-0.5-0.1
		c-0.8-0.2-1.5-0.6-2-1.3c-0.5-0.6-0.8-1.4-0.8-2.2l0.3-9.5c1.6-0.4,3.3-0.6,5-0.5C637.8,637.6,639.1,637.9,640.4,638.3L640.4,638.3
		z"/>
	<path class="st2" d="M675.2,650c-0.3,0-0.5-0.1-0.8-0.2s-0.4-0.3-0.6-0.6s-0.2-0.5-0.3-0.8c0-0.3,0-0.6,0.2-0.8
		c1.2-2.6,1.9-5.5,1.9-8.5c0-0.4,0.2-0.9,0.5-1.2c0.3-0.3,0.7-0.5,1.2-0.5s0.9,0.2,1.2,0.5c0.3,0.3,0.5,0.7,0.5,1.2
		c0,3.4-0.7,6.8-2.2,9.8c-0.1,0.3-0.3,0.5-0.6,0.7C675.8,649.9,675.5,650,675.2,650z"/>
	<path class="st2" d="M666,653.4c-0.4,0-0.7-0.1-1-0.3c-0.3-0.3-0.6-0.7-0.6-1.1c-0.1-0.4,0.1-0.9,0.3-1.2c1.8-2.3,3-5,3.7-7.9
		c0.1-0.4,0.3-0.8,0.7-1c0.4-0.2,0.8-0.3,1.2-0.2c0.4,0.1,0.8,0.3,1,0.7c0.2,0.4,0.3,0.8,0.2,1.2c-0.7,3.3-2.2,6.5-4.3,9.2
		c-0.2,0.2-0.4,0.4-0.6,0.5C666.5,653.4,666.3,653.4,666,653.4z"/>
	<path class="st6" d="M926.9,676L717,636.8l-3.6,19.5l209.9,39.1L926.9,676z"/>
	<path class="st2" d="M1014.7,299.8l-22,23.4l-65.8,352.8l-19.5-3.6l70.7-379.4L1014.7,299.8z"/>
	<path class="st2" d="M770.7,254.3l12.1,29.8L717,636.8l19.5,3.6l70.7-379.4L770.7,254.3z"/>
	<g class="st8">
		<path class="st3" d="M998.5,311.8l2.9,2.2l13.4-14.2l-36.5-6.8l-1.8,9.7C984.1,304.7,991.5,307.7,998.5,311.8L998.5,311.8z"/>
		<path class="st3" d="M804.9,273.9l2.4-12.8l-36.5-6.8l6,14.8C786.3,269.2,795.8,270.8,804.9,273.9z"/>
	</g>
	<path class="st2" d="M1000.4,256l-200.6-37.4l-29.1,35.7l244,45.5L1000.4,256z"/>
	<path class="st4" d="M1014.7,299.8l-244-45.5l9.4-11.5l230,42.9L1014.7,299.8z"/>
	<path class="st6" d="M1002.4,245.6l-200.6-37.4l-2,10.5l200.6,37.4L1002.4,245.6z"/>
	<path class="st6" d="M962.8,375.4l-170.9-31.9l-2.2,11.8l170.9,31.9L962.8,375.4z"/>
	<path class="st6" d="M943.8,477.1l-170.9-31.9l-2.2,11.8l170.9,31.9L943.8,477.1z"/>
	<path class="st6" d="M924.9,578.8l-170.9-31.9l-2.2,11.8l170.9,31.9L924.9,578.8z"/>
	<path class="st3" d="M808.7,346.6l-16.8-3.1l-2.2,11.8l17.7,3.3C807.5,354.5,807.9,350.6,808.7,346.6L808.7,346.6z"/>
	<path class="st3" d="M791.4,448.6l-18.5-3.5l-2.2,11.8l19,3.5C790,456.5,790.5,452.5,791.4,448.6L791.4,448.6z"/>
	<path class="st3" d="M773.5,550.5l-19.5-3.6l-2.2,11.8l20.7,3.9C772.5,558.5,772.8,554.5,773.5,550.5L773.5,550.5z"/>
	<path class="st6" d="M876.7,632.8l-37.7-7l-6.1,32.6l37.7,7L876.7,632.8z"/>
	<path class="st3" d="M841.2,631.9c11.6,0,22,4.9,30.4,12.6c0.9,0.8,1.7,1.7,2.5,2.6l2.7-14.2l-37.7-7l-1.2,6.2
		C838.9,631.9,840.1,631.9,841.2,631.9z"/>
	<path class="st2" d="M865.7,587.2c-20.3,8.9-18.1,26.5-18.9,28l26.3,4.9C873,618.5,881.4,602.8,865.7,587.2z"/>
	<path class="st4" d="M873.4,598.5c0.1,8.7-8.1,16.1-16.6,16.1c-3.4,0-6.8-1.1-9.5-3.1c-0.1,1.3-0.2,2.6-0.4,3.9l26.3,4.9
		C873,618.9,877.8,609.6,873.4,598.5z"/>
	<path class="st6" d="M860,619.4c-0.1,0-0.2,0-0.3,0c-0.4-0.1-0.8-0.3-1.1-0.7c-0.2-0.4-0.3-0.8-0.3-1.2l2.8-15.2
		c0.1-0.4,0.3-0.8,0.7-1.1c0.4-0.2,0.8-0.3,1.2-0.3c0.4,0.1,0.8,0.3,1.1,0.7s0.3,0.8,0.3,1.2l-2.8,15.2c-0.1,0.4-0.3,0.7-0.6,0.9
		C860.7,619.2,860.4,619.4,860,619.4z"/>
	<path class="st2" d="M751.9,581.5l11.5,2.1c1.1,0.2,2.1,0.9,2.8,1.8c0.7,1,0.9,2.1,0.7,3.3l-10.3,55.5l-20.1-3.7l10.3-55.5
		c0.2-1.1,0.9-2.1,1.8-2.8C749.6,581.5,750.8,581.3,751.9,581.5L751.9,581.5z"/>
	<path class="st2" d="M880.8,621.6l-41.7-7.8c-1.6-0.3-3.1,0.7-3.4,2.3l-1.1,5.9c-0.3,1.6,0.7,3.1,2.3,3.4l41.7,7.8
		c1.6,0.3,3.1-0.7,3.4-2.3l1.1-5.9C883.4,623.4,882.4,621.9,880.8,621.6z"/>
	<path class="st4" d="M880.9,621.6l-1.9-0.4c-2.3,4.1-5.5,7.6-9.4,10.3l9.1,1.6c0.8,0.1,1.5,0,2.2-0.5c0.6-0.4,1.1-1.1,1.2-1.8
		l1.1-5.9c0.1-0.7,0-1.5-0.5-2.1C882.3,622.2,881.6,621.8,880.9,621.6L880.9,621.6z"/>
	<path class="st4" d="M766,593.8l-20.1-3.7l-2.3,12.1l20.1,3.7L766,593.8z"/>
	<path class="st4" d="M760.6,622.7l-20.1-3.7l-2.3,12.1l20.1,3.7L760.6,622.7z"/>
	<path class="st4" d="M752.2,640.9c-1.1-7.8-2.1-15.7-3.2-23.5c-0.5-11.8,2.1-23.6,7.6-34.1c0.1-0.3,0.2-0.6,0.3-0.9l-5-0.9
		c-1.1-0.2-2.3,0-3.3,0.7c-1,0.7-1.6,1.7-1.8,2.8l-10.3,55.5l16.5,3.1C752.7,642.6,752.4,641.8,752.2,640.9z"/>
	<path class="st2" d="M764.6,618l14,2.6c0.8,0.2,1.5,0.6,2,1.3c0.5,0.7,0.6,1.5,0.5,2.3l-4.4,23.7l-20.1-3.7l4.4-23.7
		c0.1-0.4,0.2-0.8,0.4-1.1c0.2-0.3,0.5-0.6,0.8-0.9c0.3-0.2,0.7-0.4,1.1-0.5C763.8,618,764.2,618,764.6,618L764.6,618z"/>
	<path class="st4" d="M765.2,633.1c-0.2-5,1.2-10,3.8-14.2l-4.5-0.8c-0.8-0.1-1.6,0-2.3,0.5c-0.7,0.5-1.1,1.2-1.3,2l-4.4,23.7
		l12.4,2.3C766.7,642.4,765.4,637.8,765.2,633.1z"/>
	<path class="st2" d="M966.5,355.3l-40.5-7.6l-3.7,20.1l40.5,7.6L966.5,355.3z"/>
	<path class="st4" d="M939.4,370.9c-1-7-1.9-14.1-2.8-21.1l-10.6-2l-3.7,20l17.2,3.2C939.5,371,939.4,370.9,939.4,370.9L939.4,370.9
		z"/>
	<path class="st2" d="M929.6,328.4l-18.3-3.4l-7.3,39.4l18.3,3.4L929.6,328.4z"/>
	<path class="st4" d="M915.4,351.9c-0.4-8.7,1-17.3,4-25.4l-8.1-1.5l-7.3,39.4l13.4,2.5C916.7,361.9,916,356.9,915.4,351.9z"/>
	<path class="st2" d="M914.8,306.2l-18.3-3.4L885.6,361l18.3,3.4L914.8,306.2z"/>
	<path class="st4" d="M894.3,350.9c-0.5-11.4,2-22.8,7.4-32.9c1.5-4.6,3.5-9,5.9-13.1l-11.2-2.1L885.6,361l10.4,1.9
		C895.4,358.9,894.9,354.9,894.3,350.9z"/>
	<path class="st2" d="M954.6,419.7l-18.2-9.2L909,464.7l18.2,9.2L954.6,419.7z"/>
	<path class="st4" d="M944,425.3c-5.3,16.4-14.3,31.4-26.3,43.8l9.5,4.8l27.4-54.2l-6.4-3.2C946.9,419.5,945.5,422.4,944,425.3z"/>
	<path class="st6" d="M1106.8,319.7c-0.3,0-0.6-0.1-0.8-0.2c-0.2-0.1-0.4-0.3-0.6-0.6c-5.8-9-16.5-11.4-16.6-11.4
		c-0.2,0-0.4-0.1-0.6-0.3c-0.2-0.1-0.3-0.3-0.5-0.5c-0.1-0.2-0.2-0.4-0.2-0.6c0-0.2,0-0.4,0-0.6c0-0.2,0.1-0.4,0.3-0.6
		c0.1-0.2,0.3-0.3,0.5-0.4c0.2-0.1,0.4-0.2,0.6-0.2c0.2,0,0.4,0,0.6,0c0.5,0.1,12.2,2.6,18.7,12.8c0.2,0.2,0.2,0.5,0.2,0.8
		c0,0.3-0.1,0.6-0.2,0.8c-0.1,0.3-0.3,0.5-0.6,0.6C1107.4,319.5,1107.1,319.6,1106.8,319.7L1106.8,319.7z"/>
	<path class="st6" d="M1150.8,352.8c-0.3,0-0.5-0.1-0.8-0.2c-0.2-0.1-0.5-0.3-0.6-0.6c-5.7-9-16.5-11.4-16.6-11.4
		c-0.2,0-0.4-0.1-0.6-0.2c-0.2-0.1-0.3-0.3-0.5-0.5c-0.1-0.2-0.2-0.4-0.3-0.6c0-0.2,0-0.4,0-0.7c0-0.2,0.1-0.4,0.3-0.6
		s0.3-0.3,0.5-0.5c0.2-0.1,0.4-0.2,0.6-0.2c0.2,0,0.4,0,0.7,0c0.5,0.1,12.2,2.6,18.7,12.8c0.2,0.2,0.2,0.5,0.2,0.8s-0.1,0.6-0.2,0.8
		s-0.3,0.5-0.6,0.6S1151.1,352.8,1150.8,352.8L1150.8,352.8z"/>
	<path class="st6" d="M1142,365c-0.3,0-0.5-0.1-0.8-0.2c-0.2-0.1-0.4-0.3-0.6-0.6c-5.7-9-16.5-11.4-16.6-11.4
		c-0.2,0-0.4-0.1-0.6-0.2c-0.2-0.1-0.3-0.3-0.5-0.5c-0.1-0.2-0.2-0.4-0.3-0.6c0-0.2,0-0.4,0-0.7c0.1-0.2,0.1-0.4,0.3-0.6
		c0.1-0.2,0.3-0.3,0.5-0.5c0.2-0.1,0.4-0.2,0.6-0.2c0.2,0,0.4,0,0.7,0c0.5,0.1,12.2,2.6,18.7,12.8c0.2,0.2,0.2,0.5,0.3,0.8
		c0,0.3-0.1,0.6-0.2,0.8c-0.1,0.3-0.3,0.5-0.6,0.6C1142.6,364.9,1142.3,365,1142,365L1142,365z"/>
	<path class="st6" d="M1097.9,331.8c-0.3,0-0.6-0.1-0.8-0.2c-0.2-0.1-0.4-0.3-0.6-0.6c-5.8-9-16.5-11.4-16.6-11.4
		c-0.2,0-0.4-0.1-0.6-0.3c-0.2-0.1-0.3-0.3-0.5-0.5c-0.1-0.2-0.2-0.4-0.2-0.6s0-0.4,0-0.6c0-0.2,0.1-0.4,0.2-0.6
		c0.1-0.2,0.3-0.3,0.5-0.4c0.2-0.1,0.4-0.2,0.6-0.2c0.2,0,0.4,0,0.6,0c0.5,0.1,12.2,2.7,18.7,12.8c0.2,0.2,0.2,0.5,0.2,0.8
		c0,0.3-0.1,0.6-0.2,0.8c-0.1,0.3-0.3,0.5-0.6,0.6C1098.5,331.7,1098.2,331.8,1097.9,331.8L1097.9,331.8z"/>
	<path class="st6" d="M1089.8,343.9c-0.3,0-0.6-0.1-0.8-0.2c-0.2-0.1-0.5-0.3-0.6-0.6c-5.7-9-16.5-11.4-16.6-11.4
		c-0.4-0.1-0.8-0.3-1-0.7c-0.2-0.4-0.3-0.8-0.2-1.2c0.1-0.4,0.3-0.8,0.7-1c0.4-0.2,0.8-0.3,1.2-0.2c0.5,0.1,12.2,2.7,18.7,12.8
		c0.1,0.2,0.2,0.4,0.2,0.6c0,0.2,0,0.4,0,0.6c-0.1,0.2-0.1,0.4-0.3,0.6c-0.1,0.2-0.3,0.3-0.5,0.4
		C1090.4,343.8,1090.1,343.9,1089.8,343.9z"/>
	<path class="st2" d="M1065.3,405.1c1.5,0,2.7-1.2,2.7-2.7s-1.2-2.7-2.7-2.7s-2.7,1.2-2.7,2.7S1063.8,405.1,1065.3,405.1z"/>
	<path class="st2" d="M1065.3,450.5c1.5,0,2.7-1.2,2.7-2.7c0-1.5-1.2-2.7-2.7-2.7s-2.7,1.2-2.7,2.7
		C1062.6,449.3,1063.8,450.5,1065.3,450.5z"/>
	<path class="st2" d="M1026.4,405.1c1.5,0,2.7-1.2,2.7-2.7s-1.2-2.7-2.7-2.7s-2.7,1.2-2.7,2.7S1024.9,405.1,1026.4,405.1z"/>
	<path class="st2" d="M1026.4,450.5c1.5,0,2.7-1.2,2.7-2.7c0-1.5-1.2-2.7-2.7-2.7s-2.7,1.2-2.7,2.7
		C1023.7,449.3,1024.9,450.5,1026.4,450.5z"/>
	<path class="st4" d="M1060.7,429.9c-11.1,10.8-26,17-41.5,17.2h-0.3v9h53.9v-45C1070.4,418.3,1066.3,424.8,1060.7,429.9
		L1060.7,429.9z"/>
	<path class="st2" d="M594.1,644.1l-1.2-8.7l12.8,12.1c1.3,1.2,2.4,2.6,3.2,4.2c0.8,1.6,1.2,3.4,1.3,5.1c0.1,1.8-0.2,3.6-0.8,5.2
		c-0.6,1.7-1.6,3.2-2.8,4.5c-1.2,1.3-2.7,2.3-4.3,3.1c-1.6,0.7-3.4,1.1-5.2,1.1c-1.8,0-3.6-0.3-5.2-1c-1.7-0.7-3.1-1.7-4.4-3
		l-12.8-12.1l8.7,0.7C583.9,654.8,585.6,648.1,594.1,644.1z"/>
	<path class="st6" d="M598.4,655c1.3,0,2.4-1.1,2.4-2.4s-1.1-2.4-2.4-2.4s-2.4,1.1-2.4,2.4S597.1,655,598.4,655z"/>
	<path class="st6" d="M591.3,662.3c1.3,0,2.4-1.1,2.4-2.4s-1.1-2.4-2.4-2.4c-1.3,0-2.4,1.1-2.4,2.4S590,662.3,591.3,662.3z"/>
</g>
</svg>
