<?xml version="1.0" standalone="no"?>
<!DOCTYPE svg PUBLIC "-//W3C//DTD SVG 20010904//EN"
 "http://www.w3.org/TR/2001/REC-SVG-20010904/DTD/svg10.dtd">
<svg version="1.0" xmlns="http://www.w3.org/2000/svg"
 width="450.000000pt" height="450.000000pt" viewBox="0 0 450.000000 450.000000"
 preserveAspectRatio="xMidYMid meet">

<g transform="translate(0.000000,450.000000) scale(0.100000,-0.100000)"
fill="#000000" stroke="none">
<path d="M3435 3965 c-121 -29 -902 -213 -1735 -410 -833 -196 -1528 -365
-1545 -374 -37 -21 -72 -72 -81 -117 -4 -25 68 -347 281 -1251 158 -670 293
-1229 300 -1243 15 -29 50 -62 82 -79 51 -26 -74 -54 2853 637 797 188 750
176 785 204 31 24 65 91 64 128 0 14 -129 573 -288 1243 -205 867 -293 1226
-308 1245 -36 49 -81 72 -137 71 -28 0 -150 -25 -271 -54z m-123 -391 c-29
-52 -1008 -1503 -1015 -1504 -6 0 -1469 824 -1566 883 l-34 21 94 21 c173 40
2020 477 2264 535 276 67 269 65 257 44z m411 -520 c49 -207 87 -377 85 -379
-4 -4 -474 267 -489 282 -9 9 295 473 309 473 4 0 47 -169 95 -376z m-2932
-521 l206 -117 -132 -200 c-184 -281 -188 -287 -191 -284 -1 2 -41 167 -88
368 -48 201 -89 374 -92 384 -7 22 -34 36 297 -151z m2717 -78 c213 -124 393
-229 400 -233 15 -10 163 -624 153 -633 -3 -4 -152 -41 -331 -83 -179 -41
-878 -206 -1555 -366 -676 -160 -1234 -289 -1239 -287 -5 2 -43 142 -83 312
l-73 308 102 156 c56 86 171 261 255 389 l154 233 32 -19 c163 -98 969 -547
994 -554 50 -14 112 7 153 51 19 21 172 243 340 494 168 251 306 456 308 457
2 0 177 -101 390 -225z"/>
</g>
</svg>
